<svg xmlns="http://www.w3.org/2000/svg" viewBox="0 0 1150 23"><path fill="#E6E7E8" d="M1150 0c-9 0-13.7 4.6-17.5 8.3-3.4 3.3-5.9 5.7-11.2 5.7-5.4 0-7.8-2.4-11.2-5.7-3.8-3.7-8.5-8.3-17.5-8.3s-13.7 4.6-17.5 8.3c-3.4 3.3-5.9 5.7-11.2 5.7s-7.8-2.4-11.2-5.7c-4-3.7-8.7-8.3-17.7-8.3s-13.7 4.6-17.5 8.3c-3.4 3.3-5.9 5.7-11.2 5.7-5.4 0-7.8-2.4-11.2-5.7-3.8-3.7-8.5-8.3-17.5-8.3S963.8 4.6 960 8.3c-3.4 3.3-5.9 5.7-11.2 5.7s-7.8-2.4-11.2-5.7C933.7 4.6 929 0 920 0s-13.7 4.6-17.5 8.3c-3.4 3.3-5.9 5.7-11.2 5.7s-7.8-2.4-11.2-5.7c-3.8-3.7-8.5-8.3-17.5-8.3S848.8 4.6 845 8.3c-3.4 3.3-5.9 5.7-11.2 5.7-5.4 0-7.8-2.4-11.2-5.7C818.7 4.6 814 0 805 0c-9 0-13.7 4.6-17.5 8.3-3.4 3.3-5.9 5.7-11.2 5.7-5.4 0-7.8-2.4-11.2-5.7-3.8-3.7-8.5-8.3-17.5-8.3s-13.7 4.6-17.5 8.3c-3.4 3.3-5.9 5.7-11.2 5.7s-7.8-2.4-11.2-5.7C703.8 4.6 699 0 690 0s-13.7 4.6-17.5 8.3c-3.4 3.3-5.9 5.7-11.2 5.7s-7.8-2.4-11.2-5.7c-3.8-3.7-8.5-8.3-17.5-8.3S618.8 4.6 615 8.3c-3.4 3.3-5.9 5.7-11.2 5.7-5.4 0-7.8-2.4-11.2-5.7C588.8 4.6 584.1 0 575 0c-9 0-13.7 4.6-17.5 8.3-3.4 3.3-5.9 5.7-11.2 5.7s-7.8-2.4-11.2-5.7c-3.8-3.7-8.5-8.3-17.5-8.3S503.8 4.6 500 8.3c-3.4 3.3-5.9 5.7-11.2 5.7-5.4 0-7.8-2.4-11.2-5.7C473.8 4.6 469.1 0 460 0c-9 0-13.7 4.6-17.5 8.3-3.4 3.3-5.9 5.7-11.2 5.7-5.4 0-7.8-2.4-11.2-5.7-3.8-3.7-8.5-8.3-17.5-8.3S388.8 4.6 385 8.3c-3.4 3.3-5.9 5.7-11.2 5.7-5.4 0-7.8-2.4-11.2-5.7C358.8 4.6 354.1 0 345 0s-13.7 4.6-17.5 8.3c-3.4 3.3-5.9 5.7-11.2 5.7s-7.8-2.4-11.2-5.7c-3.8-3.7-8.5-8.3-17.5-8.3s-13.7 4.6-17.5 8.3c-3.4 3.3-5.9 5.7-11.2 5.7-5.4 0-7.8-2.4-11.2-5.7C243.8 4.6 239.1 0 230 0c-9 0-13.7 4.6-17.5 8.3-3.4 3.3-5.9 5.7-11.2 5.7s-7.8-2.4-11.2-5.7c-3.8-3.7-8.5-8.3-17.5-8.3s-13.7 4.6-17.5 8.3c-3.4 3.3-5.9 5.7-11.2 5.7s-7.8-2.4-11.2-5.7C128.8 4.6 124 0 115 0s-13.7 4.6-17.5 8.3c-3.4 3.3-5.9 5.7-11.2 5.7S78.4 11.6 75 8.3C71.2 4.6 66.5 0 57.5 0S43.8 4.6 40 8.3c-3.4 3.3-5.9 5.7-11.2 5.7S21 11.6 17.6 8.3C13.7 4.6 9 0 0 0v9c5.4 0 7.8 2.4 11.2 5.7C15 18.4 19.7 23 28.8 23s13.7-4.6 17.5-8.3C49.7 11.4 52.2 9 57.5 9c5.4 0 7.8 2.4 11.2 5.7 3.8 3.7 8.5 8.3 17.5 8.3s13.7-4.6 17.5-8.3c3.4-3.3 5.9-5.7 11.2-5.7s7.8 2.4 11.2 5.7c3.8 3.7 8.5 8.3 17.5 8.3s13.7-4.6 17.5-8.3c3.4-3.3 5.9-5.7 11.2-5.7 5.4 0 7.8 2.4 11.2 5.7 3.8 3.7 8.5 8.3 17.5 8.3s13.7-4.6 17.5-8.3c3.4-3.3 5.9-5.7 11.2-5.7 5.4 0 7.8 2.4 11.2 5.7 3.8 3.7 8.5 8.3 17.5 8.3s13.7-4.6 17.5-8.3c3.4-3.3 5.9-5.7 11.2-5.7s7.8 2.4 11.2 5.7c3.8 3.7 8.5 8.3 17.5 8.3s13.7-4.6 17.5-8.3c3.4-3.3 5.9-5.7 11.2-5.7 5.4 0 7.8 2.4 11.2 5.7 3.8 3.7 8.5 8.3 17.5 8.3s13.7-4.6 17.5-8.3c3.4-3.3 5.9-5.7 11.2-5.7s7.8 2.4 11.2 5.7c3.8 3.7 8.5 8.3 17.5 8.3s13.7-4.6 17.5-8.3c3.4-3.3 5.9-5.7 11.2-5.7 5.4 0 7.8 2.4 11.2 5.7 3.8 3.7 8.5 8.3 17.5 8.3s13.7-4.6 17.5-8.3c3.4-3.3 5.9-5.7 11.2-5.7 5.4 0 7.8 2.4 11.2 5.7 3.8 3.7 8.5 8.3 17.5 8.3s13.7-4.6 17.5-8.3c3.4-3.3 5.9-5.7 11.2-5.7 5.4 0 7.8 2.4 11.2 5.7 3.8 3.7 8.5 8.3 17.5 8.3s13.7-4.6 17.5-8.3c3.4-3.3 5.9-5.7 11.2-5.7 5.4 0 7.8 2.4 11.2 5.7 3.8 3.7 8.5 8.3 17.5 8.3s13.7-4.6 17.5-8.3c3.4-3.3 5.9-5.7 11.2-5.7 5.4 0 7.8 2.4 11.2 5.7 3.8 3.7 8.5 8.3 17.5 8.3s13.7-4.6 17.5-8.3c3.4-3.3 5.9-5.7 11.2-5.7 5.4 0 7.8 2.4 11.2 5.7 3.8 3.7 8.5 8.3 17.5 8.3s13.7-4.6 17.5-8.3c3.4-3.3 5.9-5.7 11.2-5.7 5.4 0 7.8 2.4 11.2 5.7 3.8 3.7 8.5 8.3 17.5 8.3s13.7-4.6 17.5-8.3c3.4-3.3 5.9-5.7 11.2-5.7s7.8 2.4 11.2 5.7c3.8 3.7 8.5 8.3 17.5 8.3s13.7-4.6 17.5-8.3c3.4-3.3 5.9-5.7 11.2-5.7s7.8 2.4 11.2 5.7c3.8 3.7 8.5 8.3 17.5 8.3s13.7-4.6 17.5-8.3c3.4-3.3 5.9-5.7 11.2-5.7s7.8 2.4 11.2 5.7c3.8 3.7 8.5 8.3 17.5 8.3s13.7-4.6 17.5-8.3c3.4-3.3 5.9-5.7 11.2-5.7 5.4 0 7.8 2.4 11.2 5.7 3.8 3.7 8.5 8.3 17.5 8.3s13.7-4.6 17.5-8.3c3.4-3.3 5.9-5.7 11.2-5.7s7.8 2.4 11.2 5.7c3.8 3.7 8.5 8.3 17.5 8.3s13.7-4.6 17.5-8.3c3.4-3.3 5.9-5.7 11.2-5.7V0z"/></svg>