<svg width="148" height="73"><path d="M35.41 45.13c0-3.47-.26-6.94-.36-10.41v-1l.15.36A28.74 28.74 0 0037 38a18.09 18.09 0 011.52 3.94.65.65 0 00-.2.6c0 .15.06.24.21.31.54.46 1.55.23 2.11 0a5.42 5.42 0 00.7-.35c.29-.18.74-.57.61-1l-.07-.24a20.36 20.36 0 00.81-3.31 20.87 20.87 0 011.09-3.49c0 .52.09 1 .13 1.56.17 2.15 0 4.27 0 6.42a9.9 9.9 0 00.18 2.08 8.5 8.5 0 01.24 1.58.65.65 0 00.33 1.21 2.8 2.8 0 002.34-.63c1-.93.53-2.4.3-3.57-.38-2 .08-4.18 0-6.19-.07-2.26-.43-4.5-.4-6.77 0-1.83.33-3.71-.3-5.47 0-.2.08-.4.12-.6.16-.88-2.75-.41-3.21.39-.29.24-.44.52-.31.81l.08.22a65.76 65.76 0 01-2.21 7.93c-.34 1-.75 2-1.1 3a30.31 30.31 0 01-1.38-2.85c-1.15-2.89-2.2-5.81-3.61-8.6.16-1.29-2.7-1.15-3.26 0a7.29 7.29 0 00-.37 4.39 38.17 38.17 0 01.32 5.15c0 3.35.3 6.69.35 10a.85.85 0 00-.02 1.2 2.53 2.53 0 00.48.46c.75.63 2.93.11 2.93-1.05zm18.2-18.37c-.09-.61-3.42.08-3.3.89a33 33 0 01.13 5.35 33 33 0 00.62 5c.23 1.73-.07 3.5.13 5.24.09.81.63 2.31.07 3-.35.45 1.24.28 1.31.28a3.26 3.26 0 001.94-.87c.55-.7.17-2 0-2.82a46.11 46.11 0 01-.16-5.29c-.06-1.68-.64-3.25-.65-4.95a40.77 40.77 0 00-.09-5.83zm3.12 6.64c.91 2.51 4.65 1.33 6.55 1.47 3.24.24 2.27 4.61 2.31 6.64 0 1.08 1 2.89.18 3.8-.5.56-1.67.59-2.35.65s-1.85.26-2.31-.39c-.84-1.19.08-3.2-.1-4.57-.1-.78-3.42-.08-3.3.88.29 2.21-1.18 5.17 2 5.56a15.2 15.2 0 006.29-.78 7.43 7.43 0 002.73-1.51c.87-.79.58-2 .35-3-.57-2.46.62-5.29-1-7.45-1.74-2.35-5-.66-7.21-1.3-1.16-.33-1.17-1.91-1.17-2.86a30.12 30.12 0 00-.23-3.49 2.87 2.87 0 01.63-2.45 3.26 3.26 0 01.68-.28 6.92 6.92 0 01.9-.08c1.3-.06 3.88.19 3.39 2.09-.23.85 3 .36 3.27-.53 1-3.87-6.14-3.13-8.16-2.59-1.86.49-3.92 1.56-4 3.7-.05 1 .23 2 .27 3a11.15 11.15 0 00.28 3.49zm14.45 1.87c-.05 1.8-.21 3.59-.22 5.39a18.4 18.4 0 00.28 2.75 7 7 0 01.15 2.8c-.2.65 3 .24 3.25-.59.46-1.5-.19-3.4-.34-4.92a26 26 0 01.07-4.42 25.17 25.17 0 015.12 0c.08 1.16.16 2.32.27 3.48.09 1 .15 1.95.16 2.93a8.88 8.88 0 01-.18 2.91c-.65 1.73 2.65 1.59 3.14.3a13.11 13.11 0 00.32-5.19c-.13-2.06-.4-4.11-.47-6.17-.1-3.18-.58-6.33-.59-9.51 0-1.66-3.34-1.1-3.33.29 0 3 .42 6 .57 9.07v.18c-1.64 0-3.28.15-4.93.21.17-3.9-.51-7.77-.36-11.67 0-.49-3.26-.08-3.3.88-.13 3.77.51 7.51.39 11.28zm14.08 5.38c-.25.26-.16.41 0 .51 0 1.47-.05 2.95-.18 4.42-.4.63.39 1 .91 1h.08c.62 0 2.21-.29 2.29-1.15.16-1.77.21-3.53.2-5.3A26.53 26.53 0 0092 35.34a25 25 0 011.7 3.86c.72 2.31 1.94 4.43 2.64 6.75.46 1.52 3.75.62 3.3-.88-.7-2.32-1.86-4.46-2.64-6.75a62.12 62.12 0 00-3-6.57c.85-1.64 1.7-3.28 2.47-5 .7-1.52 1.22-3.22 2.59-4.29.48-.38.46-.75-.22-.8a3.71 3.71 0 00-2.33.63 9 9 0 00-2.69 3.59A126.4 126.4 0 0191.36 31l-.19.37a1 1 0 00-.54 1.06c-.67 1.32-1.35 2.63-2.1 3.88-.25-4.66-.8-9.32-1-14 0-1.07-3.35-.4-3.3.89.2 5.78 1 11.56 1.08 17.34zm31.54-6.24c-.18-.7-1.15-.72-1.91-.65v-.85c-.11-2.24-.14-4.53-.33-6.76-.18-2.07-1.33-2.81-3.35-2.73a20.37 20.37 0 00-6.3 1.18 5.89 5.89 0 00-3.91 4.78c-.46 2.54.2 5.24.31 7.79.13 3 .06 5.91.05 8.86 0 .48 3.3 0 3.3-.88v-7c0-.69 0-1.37-.08-2.06 1.15-.5 3.11 0 4.25.12a12.79 12.79 0 002.77-.21c0 1.95.09 3.9.17 5.85 0 1 .4 3-.3 3.8-.37.44 1.25.29 1.31.28a3.37 3.37 0 001.94-.87c.8-.94.38-3.19.34-4.32-.07-1.61-.09-3.22-.12-4.83.98-.19 2.06-.78 1.86-1.5zm-6.66-.16a24.74 24.74 0 00-5.65 0c-.09-1.05-.18-2.1-.25-3.15-.13-2 .1-4.7 1.93-5.9a6.08 6.08 0 012-.37 3.1 3.1 0 012.38.16c1 .68.77 3.08.77 4.1 0 1.69.18 3.37.26 5.06a11.89 11.89 0 01-1.44.1zM49.93 22.94a.58.58 0 00.12.5v.39a.77.77 0 00.36.45 1.83 1.83 0 001.11.2 2.68 2.68 0 001.26-.48l.22-.18c.44-.28.82-.7.61-1.15a6.47 6.47 0 01-.35-2.87c0-.81-.81-1.05-1.5-1s-1.83.49-1.83 1.28a13.19 13.19 0 00.07 2.56 1.63 1.63 0 00-.07.3zm61.58 29.18a19.75 19.75 0 00-4.85-.79c-1.6-.17-3.25-.41-4.88-.56-1.64.05-3.31 0-5 .13l-4.88.27c-6.49.29-13 .25-19.52.11s-13-.48-19.63-.45c-3.29 0-6.56.1-9.86.25-1.63.28-3.24.5-4.9.91a31 31 0 01-4.79 1 23.19 23.19 0 005 .3c1.58 0 3.24.14 4.87.23 3.23-.17 6.49-.25 9.73-.25 6.49 0 13 .33 19.57.45s13.11.19 19.68-.11l4.91-.27c1.6-.07 3.2-.13 4.83-.07 1.63-.15 3.25-.33 4.92-.53a22.69 22.69 0 014.85-.51h.07v-.06a3.38 3.38 0 000-.48c-.09.17-.09.31-.12.43z"/><g class="page-header__logo-tablet"><path d="M115.07 24.31a3.48 3.48 0 00-2.68-.18 6.81 6.81 0 00-2.23.42c-2.06 1.34-2.32 4.43-2.17 6.64.08 1.19.19 2.37.29 3.55 2.05-.43 4.2-.09 6.36 0a13.39 13.39 0 001.6-.07c-.1-1.9-.3-3.79-.29-5.7-.02-1.19.27-3.9-.88-4.66zm12.99 30.88c.43.09.06.01 0 0z"/><path d="M128.21 16.88c-2-6.57-26.68-2.14-32.18-1.72-12.72 1-25.19-1-37.61-.38-6.21.29-34.85-1.81-37.52 2-5 7.21-2.65 25.8-1.28 35.08-4 .78 2.31 4.15 3.14 4.9 6.31 2.19 16.36-.22 23 .4 15.43 1.47 31.8-2.19 47.28-1 4.5 1.14 9.6 1 14.22 1.24 3.41 5.57 19.66-2.46 20.8-2.23 4.39.89.84-35.84.15-38.29zM43.53 48.72a3.15 3.15 0 01-2.63.71.74.74 0 01-.37-1.36 10 10 0 00-.27-1.79 11 11 0 01-.21-2.34c0-2.42.19-4.81 0-7.24 0-.59-.1-1.17-.15-1.76a23.61 23.61 0 00-1.23 3.92 23 23 0 01-.92 3.73l.08.26c.15.46-.36.9-.69 1.1a5.73 5.73 0 01-.78.4c-.63.27-1.77.53-2.38 0-.17-.07-.28-.17-.24-.34a.73.73 0 01.22-.67 20.29 20.29 0 00-1.71-4.44 32.12 32.12 0 01-2.07-4.42l-.18-.4v1.15c.1 3.91.39 7.82.4 11.73 0 1.31-2.46 1.89-3.32 1.21a3 3 0 01-.54-.52 1 1 0 01.09-1.3c-.06-3.77-.35-7.54-.4-11.31a43.06 43.06 0 00-.36-5.8 8.21 8.21 0 01.42-4.95c.64-1.33 3.85-1.48 3.67 0 1.59 3.14 2.76 6.43 4.07 9.68a33.66 33.66 0 001.56 3.21c.39-1.12.85-2.23 1.23-3.35a74.4 74.4 0 002.49-8.93l-.1-.25c-.14-.32 0-.64.35-.91.52-.91 3.8-1.43 3.62-.44 0 .23-.09.45-.13.67.71 2 .37 4.1.34 6.16 0 2.55.37 5.08.45 7.62.07 2.26-.45 4.75 0 7 .29 1.25.82 2.92-.31 3.97zM47 23v-.45a.66.66 0 01-.14-.56 2.23 2.23 0 01.1-.34 15 15 0 01-.1-2.84c0-.89 1.38-1.38 2.06-1.44s1.7.21 1.69 1.11a7.31 7.31 0 00.39 3.24c.23.51-.2 1-.69 1.29l-.24.21a3 3 0 01-1.4.5 2.05 2.05 0 01-1.25-.22.86.86 0 01-.42-.5zm5 24.5a3.67 3.67 0 01-2.19 1c-.08 0-1.87.2-1.47-.31.63-.79 0-2.48-.08-3.4-.22-2 .11-3.95-.14-5.9a37 37 0 01-.69-5.6 36.89 36.89 0 00-.15-6c-.13-.9 3.62-1.68 3.72-1a46.28 46.28 0 01.15 6.54c0 1.91.67 3.68.73 5.57a51.83 51.83 0 00.18 6c.09.8.52 2.32-.06 3.1zm16-.5a8.4 8.4 0 01-3 1.67 17.14 17.14 0 01-7.12.88c-3.61-.43-2-3.77-2.28-6.26-.14-1.09 3.6-1.87 3.72-1 .2 1.54-.83 3.8.11 5.15.52.73 1.83.5 2.6.44s2.08-.1 2.65-.73c.92-1-.17-3.05-.2-4.28 0-2.29 1-7.21-2.61-7.48-2.14-.16-6.35 1.18-7.38-1.66a12.66 12.66 0 01-.27-3.91c-.05-1.15-.37-2.25-.31-3.4.12-2.42 2.43-3.62 4.53-4.17 2.28-.6 10.34-1.44 9.19 2.92-.27 1-3.93 1.56-3.68.6.56-2.14-2.34-2.42-3.81-2.36a7.69 7.69 0 00-1 .09 4.25 4.25 0 00-.77.32 3.23 3.23 0 00-.71 2.76 33.4 33.4 0 01.26 3.93c0 1.07 0 2.85 1.32 3.22 2.54.72 6.17-1.18 8.12 1.46 1.81 2.44.47 5.63 1.11 8.4.23 1.15.53 2.49-.47 3.41zm15.89.86c-.54 1.44-4.27 1.61-3.53-.35a10 10 0 00.21-3.28c0-1.1-.09-2.2-.19-3.3-.12-1.31-.22-2.62-.3-3.92a28.31 28.31 0 00-5.77 0 29.21 29.21 0 00-.08 5c.17 1.71.9 3.85.38 5.54-.29.93-3.89 1.39-3.67.66a7.92 7.92 0 00-.13-3.21 20.78 20.78 0 01-.31-3.1c0-2 .19-4 .25-6.07.13-4.25-.59-8.46-.43-12.71 0-1.08 3.74-1.55 3.72-1-.17 4.39.6 8.75.41 13.15 1.85-.06 3.7-.25 5.55-.23v-.21c-.17-3.41-.63-6.79-.65-10.21 0-1.56 3.75-2.2 3.75-.33 0 3.59.56 7.14.67 10.72.08 2.32.39 4.63.53 6.95.11 1.89.3 4.1-.37 5.87zm15.16 0c-.79-2.61-2.16-5-3-7.6a28 28 0 00-1.89-4.35 29.84 29.84 0 01-3.85 5.35c0 2 0 4-.22 6-.09 1-1.88 1.29-2.58 1.29h-.09c-.59 0-1.48-.37-1-1.08.14-1.66.2-3.33.2-5-.23-.1-.34-.28-.05-.57-.07-6.52-1-13-1.22-19.54-.05-1.45 3.67-2.2 3.72-1 .19 5.26.81 10.5 1.09 15.75.85-1.42 1.62-2.89 2.37-4.37a1.09 1.09 0 01.61-1.2l.21-.42c1-1.91 1.88-3.82 2.76-5.76a10.2 10.2 0 013-4.05 4.22 4.22 0 012.63-.7c.77.05.79.48.24.9-1.55 1.21-2.13 3.12-2.92 4.83-.87 1.89-1.83 3.74-2.78 5.59a70.35 70.35 0 013.43 7.4c.88 2.58 2.18 5 3 7.6.61 1.65-3.1 2.66-3.62.95zM120 36.5c0 1.81.06 3.63.14 5.44.05 1.27.52 3.8-.38 4.86a3.76 3.76 0 01-2.19 1c-.07 0-1.89.18-1.47-.31.79-.93.38-3.16.33-4.28-.09-2.19-.17-4.4-.19-6.59a14.39 14.39 0 01-3.08.27c-1.29-.12-3.49-.7-4.79-.13 0 .77.08 1.54.1 2.32v7.9c0 1-3.72 1.54-3.72 1 0-3.33.09-6.66-.06-10-.13-2.87-.88-5.91-.35-8.77a6.63 6.63 0 014.33-5.39 23 23 0 017.1-1.33c2.27-.09 3.57.75 3.77 3.08.21 2.52.25 5.1.37 7.62v1c.85-.08 2-.06 2.16.73s-.93 1.44-2.07 1.58z"/></g><g class="page-header__logo-desktop"><path d="M61.6 63.38a4.53 4.53 0 00-2 .54c-.14.08-.34.2-.34.39a3.09 3.09 0 010 .35.76.76 0 01-.12.29c-.06.08-.11.18 0 .25a1.28 1.28 0 00.71.06A4.71 4.71 0 0061 65a2.07 2.07 0 00.79-.41 1 1 0 00.28-.5 2.69 2.69 0 000-.53c.02-.18-.4-.18-.47-.18zM5.67 43.11c-1.49.36-3 .57-4.48 1-.54.15-1.34.64-1.16 1.32s1.13.71 1.66.56c1.48-.4 3-.61 4.48-1 .54-.13 1.34-.65 1.16-1.32s-1.12-.67-1.66-.56zM57 60.78c-.5.08-1.41.3-1.64.83a34.64 34.64 0 00-1.36 3.9c-.21.73 2.57.33 2.8-.45a34.57 34.57 0 011.36-3.9c.24-.52-.95-.41-1.16-.38zm65.56-48.51a2.31 2.31 0 001.05-.06 2.14 2.14 0 00.94-.48 5.06 5.06 0 001-1.18c.1-.2.17-.4 0-.59a1.1 1.1 0 00-.76-.25 2.69 2.69 0 00-1.11.22 1.55 1.55 0 00-.76.55 3 3 0 01-.35.51l-.19.2c-.16.16-.35.36-.28.61s.25.43.46.47zm-1.82 52.44c-.29-.59-1.07-.56-1.62-.41-.35.09-1.48.6-1.2 1.17l1.17 2.34c.29.59 1.07.56 1.62.41.35-.09 1.49-.6 1.2-1.17zM20.68 10.91c.22.65 1.11.65 1.65.5s1.39-.62 1.17-1.26a4.66 4.66 0 00-.89-1.78 1.7 1.7 0 00-1.9-.15c-.41.19-1.18.84-.7 1.35a3.09 3.09 0 01.67 1.34zm115.18 6.78a3.61 3.61 0 001.89-.66 21.13 21.13 0 003.62-3.64c.29-.39-1-.24-1.12-.23a2.74 2.74 0 00-1.66.75 19.72 19.72 0 01-3.39 3.37c-.49.41.45.43.66.41zM30.66 13.9c.84 0 3.07-1.28 1.19-1.28-.85 0-3.08 1.28-1.19 1.28zm32.6-1.27c.13.2.56.22.75.22a2.93 2.93 0 001.11-.22c.4-.17 1.1-.56.77-1.07s-.61-1.19-1-1.75c-.13-.2-.56-.22-.75-.22a2.91 2.91 0 00-1.1.23c-.4.16-1.1.56-.77 1.07s.63 1.17.99 1.74zm53.39 54.42c-.35-.69-3 .33-2.82.76.84 1.64 1.94 3.12 2.92 4.68.44.69 3-.41 2.82-.76-.98-1.56-2.07-3.04-2.92-4.68z"/><path d="M143.16 31.4a38.93 38.93 0 01-4.66 2.78 17.32 17.32 0 00-.59-5.13l.15-1c.38-3 .66-7.12-2-9.22-.34-.27-1.25 0-1.92.27a4.64 4.64 0 00-.5-.41c-.08-.24-.16-.49-.23-.74s-.17-.19-.36-.21c.28-.38.26-.82-.42-1.09-.38-.15-.76-.29-1.14-.41-.07-.07-.13-.1-.17-.06a22.09 22.09 0 00-2.86-.71 5.08 5.08 0 01.55-1 5 5 0 01.43-.44l.19-.16.07-.06.08-.06c.38-.29.85-.86.22-1.2a2.1 2.1 0 00-2 .24 6.55 6.55 0 00-2.09 2.36 50.09 50.09 0 00-6.08-.08.76.76 0 00.14-.25c.18-.58-.91-.52-1.19-.49l-4.69.6c1.37-3.77 3.08-8.58 1-12.26C113.89.55 111.18.08 109 0a13.72 13.72 0 00-7 1.64c-4.76 2.62-7.11 7.71-8.21 13.14a1.84 1.84 0 00-2.65.47c-.12.32-.23.65-.33 1a1.46 1.46 0 00-.34.64v.17h-.2l.06-.31a.69.69 0 00.28-.37c.57-2.3 1.16-4.59 1.95-6.82.27-.76-2.51-.4-2.8.43-.42 1.19-.79 2.4-1.12 3.62a.91.91 0 00-.42.33v.1a.9.9 0 00-.47-.18v-1c0-.43-2.82 0-2.82.76v1.58a2.33 2.33 0 00-.47.27l-.19.17a.37.37 0 00-.12.24L84 16l-.05.07a.31.31 0 000 .47 1.13 1.13 0 00.74.16h.15v.47h-.67l-.41-.05c0-.39-.68-.45-1.35-.33a.53.53 0 000-.15c-.1-.6-.17-1.19-.23-1.79a3.08 3.08 0 00.68-.31c.16-.1.33-.22.33-.43v-.19c0-.18-.41-.2-.5-.21a2.84 2.84 0 00-.59 0c-.1-1.33-.1-2.64-.1-3.95 0-.84-2.82-.32-2.82.76a51.72 51.72 0 00.19 5.34h-.27v-1.52c0-1-1.3-1.22-2.15-.81a1 1 0 00.37-1 30.42 30.42 0 01-1-4.29c-.19-1.39-3-.68-2.82.76a30.15 30.15 0 001 4.29c.23.83 1.34.89 2.1.51a1 1 0 00-.37.76v.63a1.65 1.65 0 00-.77-.16c-1.06 0-1.67.89-1.4 1.48l-.49-.08a14.1 14.1 0 01-.71-3.83c0-.94-1.27-1-2.11-.67a.57.57 0 000-.17 13 13 0 01-.78-2.53c-.33-1.35-3.16-.6-2.82.76.16.64.3 1.28.52 1.9h-.06a2.65 2.65 0 00-.85.39c-.83.08-1.83.57-1.75 1.21.06.48.13 1 .21 1.43l-1.64.26a11.9 11.9 0 01-.62-2.44c-.13-.92-1.55-.85-2.33-.26a22.56 22.56 0 00-3.12-5.76C54.79 3.22 50.32 2 46.17 2.87a9 9 0 00-5 2.65 5.94 5.94 0 00-1.17 4.8 19.12 19.12 0 001.58 6 2.47 2.47 0 00-.95.14c-.28.12-.56.25-.83.39-1.94 0-3.88 0-5.8-.07-4.18-.19-8.3-.86-12.5-.74-.92 0-1.53.72-1.46 1.26a4.31 4.31 0 00-2.14 2.29 54 54 0 00-5.34-3.21c-.69-.35-3.3.71-2.28 1.22a53.13 53.13 0 015.28 3.22 2.19 2.19 0 001.84-.07l.16-.08a9.72 9.72 0 00.24 4.49.56.56 0 00.17.27 9.29 9.29 0 000 1v.17a1.2 1.2 0 00-.76.84 37.38 37.38 0 00-.31 4.23 1.09 1.09 0 00-.48.8 49.9 49.9 0 00.47 10 72.78 72.78 0 001.17 8q.09.62.17 1.25a9.7 9.7 0 00-.24 3.48c-.88.17-1.73.87-1.23 1.62a9.1 9.1 0 002.61 2.65 2.31 2.31 0 00-1.87.56c-.82.81-1.71 1.53-2.53 2.34-.43.42-.31.93.29 1.08a2.31 2.31 0 002-.54c.82-.81 1.71-1.53 2.53-2.34a.64.64 0 00.2-.73c3.15 1.66 7.18 1.16 11.01.87a34.56 34.56 0 00-2.17 5c-.26.72 2.51.37 2.8-.44a33.4 33.4 0 012.1-4.9c3.74.12 7.48.12 11.22.05a1.08 1.08 0 00.75.34 34.48 34.48 0 009.69-.7c4.79-.23 9.58-.52 14.37-.81 7.53-.19 15.06-.35 22.59-.32l.31.32a1.31 1.31 0 001 .33h.2c.71 0 1.43.09 2.14.15a1.81 1.81 0 00.56 0l2.35.21a1.15 1.15 0 00.79.36c3.8.25 7.61.52 11.42.7a1 1 0 00.82.34c7.07.06 15.28 2.8 21.56-1.74.5-.36.27-.88-.26-1h-.33a60.73 60.73 0 002.95-8.55 1.08 1.08 0 00.65-.86 34.63 34.63 0 01.37-3.64q.25-1.33.44-2.66c.39-2.17.81-4.37 1-6.54a50 50 0 006.68-3.82c1.56-1.11-.79-1.88-1.84-1.13zM43.37 51.8a3.35 3.35 0 01-2.8.75.78.78 0 01-.39-1.45 10.69 10.69 0 00-.28-1.9 11.75 11.75 0 01-.22-2.48c0-2.58.2-5.12 0-7.7 0-.62-.1-1.25-.16-1.87a25.09 25.09 0 00-1.31 4.17 24.53 24.53 0 01-1 4l.09.28c.16.48-.39 1-.74 1.17a6.18 6.18 0 01-.83.43c-.67.28-1.89.56-2.53 0-.2-.1-.27-.2-.2-.4a.78.78 0 01.23-.72 21.6 21.6 0 00-1.82-4.72 34.22 34.22 0 01-2.21-4.7l-.2-.43v1.22c.11 4.16.41 8.31.42 12.47 0 1.39-2.61 2-3.53 1.28a3.15 3.15 0 01-.58-.55 1 1 0 01.09-1.39c-.06-4-.37-8-.42-12a45.71 45.71 0 00-.38-6.17 8.72 8.72 0 01.44-5.26c.67-1.41 4.1-1.58 3.91 0 1.69 3.33 2.94 6.83 4.33 10.3A35.78 35.78 0 0035 39.49c.41-1.2.9-2.37 1.31-3.57a78.92 78.92 0 002.65-9.5l-.1-.26c-.15-.34 0-.68.38-1 .55-1 4-1.52 3.85-.47 0 .24-.09.48-.14.72.76 2.1.39 4.36.36 6.55 0 2.71.4 5.4.48 8.11.07 2.41-.48 5.05 0 7.41.21 1.45.79 3.2-.42 4.32zM47 24.41v-.48a.7.7 0 01-.14-.59A2.41 2.41 0 0147 23a16.11 16.11 0 01-.11-3c0-.95 1.47-1.47 2.19-1.53s1.8.22 1.8 1.18a7.78 7.78 0 00.42 3.45c.24.54-.21 1-.73 1.37l-.26.22a3.19 3.19 0 01-1.49.53 2.19 2.19 0 01-1.33-.24.91.91 0 01-.49-.57zm5.32 26.1a3.9 3.9 0 01-2.32 1c-.09 0-2 .21-1.57-.33.67-.84 0-2.64-.09-3.61-.24-2.08.12-4.2-.15-6.27a39.51 39.51 0 01-.74-6 39.21 39.21 0 00-.15-6.3c-.14-1 3.85-1.79 4-1.06a49.13 49.13 0 01.16 6.95c0 2 .71 3.92.78 5.92a55.47 55.47 0 00.19 6.33c.1.92.57 2.53-.1 3.37zm17.1-.56a8.91 8.91 0 01-3.27 1.81 18.23 18.23 0 01-7.57.94c-3.84-.45-2.08-4-2.42-6.65C56 44.88 60 44 60.12 45c.21 1.64-.88 4 .12 5.47.55.78 1.95.53 2.77.47s2.22-.11 2.82-.77c1-1.09-.19-3.25-.21-4.55 0-2.44 1.11-7.67-2.77-8-2.28-.17-6.76 1.25-7.85-1.76-.49-1.35-.23-2.75-.29-4.16-.05-1.22-.39-2.39-.33-3.62.13-2.58 2.59-3.85 4.82-4.44 2.42-.64 11-1.53 9.77 3.11-.28 1.08-4.18 1.66-3.91.64.6-2.27-2.49-2.57-4.06-2.51a8.11 8.11 0 00-1.08.09 4.37 4.37 0 00-.82.34 3.44 3.44 0 00-.75 2.93 35.45 35.45 0 01.28 4.18c0 1.14 0 3 1.4 3.43 2.7.77 6.56-1.26 8.64 1.55 1.92 2.59.5 6 1.18 8.93.28 1.25.63 2.67-.42 3.61zm16.9.91c-.58 1.54-4.54 1.71-3.76-.37A10.68 10.68 0 0082.8 47c0-1.17-.09-2.34-.2-3.51-.13-1.39-.23-2.78-.33-4.17a30 30 0 00-6.14 0 31.17 31.17 0 00-.08 5.3c.18 1.82 1 4.1.41 5.89-.3 1-4.14 1.48-3.9.7a8.4 8.4 0 00-.18-3.35 21.8 21.8 0 01-.38-3.28c0-2.16.2-4.3.26-6.46.14-4.52-.63-9-.46-13.51 0-1.15 4-1.65 4-1.06-.18 4.67.64 9.31.44 14 2-.07 3.94-.27 5.9-.25v-.22c-.19-3.63-.67-7.22-.69-10.86 0-1.66 4-2.34 4-.35 0 3.82.59 7.59.71 11.4.08 2.47.41 4.92.56 7.39.12 1.96.28 4.34-.39 6.2zm1.38-34.39q.11-.47.23-.93H88l-.2.81zm14.75 34.44c-.84-2.78-2.29-5.32-3.16-8.09a29.77 29.77 0 00-2-4.62 31.66 31.66 0 01-4.09 5.69 63.27 63.27 0 01-.2 6.34c-.09 1-2 1.38-2.74 1.38h-.1c-.63 0-1.57-.4-1.09-1.15.15-1.77.21-3.54.21-5.3-.24-.11-.36-.29-.05-.61v-.05c-.07-6.93-1.05-13.85-1.3-20.78-.05-1.54 3.91-2.34 4-1.06.2 5.59.86 11.17 1.16 16.75.91-1.51 1.72-3.08 2.52-4.65a1.16 1.16 0 01.65-1.28l.23-.45c1-2 2-4.06 2.94-6.13a10.84 10.84 0 013.23-4.31 4.49 4.49 0 012.79-.75c.81.06.84.51.26 1-1.65 1.28-2.27 3.32-3.11 5.14-.92 2-1.95 4-3 5.94a74.67 74.67 0 013.65 7.87c.93 2.74 2.32 5.31 3.16 8.09.54 1.77-3.41 2.85-3.96 1.03zm22.29-12.1c0 1.93.06 3.86.14 5.79.05 1.35.55 4-.41 5.17a4 4 0 01-2.32 1c-.08 0-2 .19-1.57-.33.84-1 .4-3.36.36-4.55-.1-2.33-.18-4.68-.2-7a15.43 15.43 0 01-3.27.29c-1.38-.13-3.71-.74-5.1-.14.05.82.09 1.64.1 2.47v8.4c0 1.09-4 1.64-4 1.06 0-3.54.09-7.08-.06-10.61-.14-3.06-.93-6.29-.38-9.33a7.06 7.06 0 014.6-5.73 24.5 24.5 0 017.55-1.42c2.41-.09 3.8.8 4 3.28.23 2.68.27 5.42.4 8.11v1c.91-.08 2.08-.06 2.29.78s-.97 1.61-2.13 1.76zm22 5.96h-4.87a1.61 1.61 0 00-1.56 1.14c-.09.74.75.92 1.3.92h4.87a1.61 1.61 0 001.52-1.14c.13-.69-.71-.92-1.26-.92z"/><path d="M119.44 25.84a3.7 3.7 0 00-2.86-.19 7.22 7.22 0 00-2.38.44c-2.19 1.43-2.47 4.71-2.31 7.06.09 1.26.2 2.52.31 3.78 2.18-.46 4.46-.1 6.77 0a13.81 13.81 0 001.7-.08c-.1-2-.32-4-.31-6.06 0-1.26.3-4.14-.92-4.95z"/></g></svg>