<svg style="display:none;" xmlns="http://www.w3.org/2000/svg" xmlns:xlink="http://www.w3.org/1999/xlink">

  <symbol viewBox="0 0 20.514 20.512" id="icon-close">
    <polygon points="20.513,1.414 19.099,0 10.256,8.842 1.414,0 0,1.414 8.842,10.256 0,19.098 1.414,20.512 10.256,11.67 19.099,20.512 20.513,19.098 11.671,10.256 "/>
  </symbol>

  <symbol viewBox="-0.8 -0.8 17.6 17.6" id="icon-search">
    <path d="M16.47,14.93l-3.415-3.415C14.02,10.226,14.6,8.634,14.6,6.899c0-4.253-3.447-7.699-7.7-7.699 S-0.8,2.646-0.8,6.899s3.446,7.7,7.699,7.7c1.734,0,3.326-0.58,4.613-1.546l3.417,3.416c0.203,0.202,0.418,0.33,0.771,0.33 c0.607,0,1.1-0.492,1.1-1.1C16.8,15.459,16.739,15.2,16.47,14.93z M1.399,6.899c0-3.038,2.462-5.5,5.5-5.5s5.5,2.462,5.5,5.5 s-2.462,5.5-5.5,5.5S1.399,9.938,1.399,6.899z"/>
  </symbol>

  <symbol viewBox="264.205 370.961 20.294 18.849" id="icon-cart">
    <path d="M283.75,378.19h-3.151l-3.407-6.814c-0.185-0.37-0.634-0.52-1.006-0.335 c-0.371,0.186-0.521,0.636-0.335,1.006l3.071,6.143h-9.138l3.072-6.143c0.185-0.371,0.035-0.821-0.335-1.006 c-0.37-0.185-0.821-0.035-1.006,0.335l-3.407,6.814h-3.151c-0.414,0-0.75,0.336-0.75,0.75s0.336,0.75,0.75,0.75h0.157l0.855,2.991 c-0.187,0.137-0.316,0.347-0.316,0.595c0,0.396,0.309,0.71,0.697,0.739l1.656,5.795h12.697l1.656-5.795 c0.388-0.028,0.698-0.344,0.698-0.739c0-0.249-0.129-0.459-0.316-0.596l0.854-2.991h0.157c0.414,0,0.75-0.336,0.75-0.75 S284.164,378.19,283.75,378.19z M279.569,388.311h-10.433l-1.224-4.284h12.881L279.569,388.311z M281.222,382.526h-13.739 l-0.81-2.836h15.359L281.222,382.526z"/>
  </symbol>

  <symbol viewBox="8.014 4.35 31.972 37.301" id="icon-feature-flower">
    <path fill="#63d1bb" d="M24,41.65c8.827,0,15.986-7.159,15.986-15.986C31.158,25.664,24,32.822,24,41.65z M12.641,20.78 c0,2.451,1.989,4.441,4.44,4.441c0.932,0,1.803-0.294,2.513-0.782l-0.036,0.337c0,2.451,1.99,4.441,4.441,4.441 s4.44-1.99,4.44-4.441l-0.036-0.337c0.719,0.497,1.582,0.782,2.514,0.782c2.451,0,4.44-1.99,4.44-4.441 c0-1.768-1.038-3.286-2.54-3.997c1.492-0.71,2.54-2.229,2.54-3.997c0-2.451-1.989-4.44-4.44-4.44c-0.932,0-1.803,0.293-2.514,0.781 L28.44,8.79c0-2.451-1.989-4.44-4.44-4.44s-4.441,1.99-4.441,4.44l0.036,0.337c-0.719-0.497-1.581-0.781-2.513-0.781 c-2.451,0-4.44,1.99-4.44,4.44c0,1.768,1.039,3.286,2.54,3.997C13.68,17.494,12.641,19.012,12.641,20.78z M24,12.343 c2.451,0,4.44,1.989,4.44,4.44c0,2.451-1.989,4.44-4.44,4.44s-4.441-1.99-4.441-4.44C19.559,14.332,21.549,12.343,24,12.343z  M8.014,25.664c0,8.827,7.158,15.986,15.986,15.986C24,32.822,16.842,25.664,8.014,25.664z"/>
  </symbol>

  <symbol viewBox="0 0 34.373 34.373" id="icon-feature-ball">
    <g fill="#63d1bb">
      <path d="M0.286,14.069c-0.382,2.073-0.384,4.211,0.008,6.301l4.121-3.21L0.286,14.069z"/>
      <path d="M24.403,1.585C19.62-0.623,13.959-0.559,9.149,1.992l7.513,5.625L24.403,1.585z"/>
      <path d="M33.901,13.175l-4.811,3.748l4.936,3.695C34.522,18.173,34.489,15.63,33.901,13.175z"/>
      <path d="M9.209,32.414c4.844,2.534,10.724,2.65,15.73,0.113l-8.096-6.062L9.209,32.414z"/>
      <path d="M7.914,14.433L1.681,9.767c-0.32,0.669-0.595,1.356-0.825,2.056l5.308,3.974L7.914,14.433z"/>
      <path d="M18.593,25.102l8.336,6.242c0.277-0.191,0.551-0.391,0.82-0.601c0.318-0.248,0.625-0.505,0.92-0.771l-8.326-6.234 L18.593,25.102z"/>
      <path d="M11.413,11.707L4.002,6.158C3.54,6.709,3.117,7.285,2.733,7.881l6.931,5.189L11.413,11.707z"/>
      <path d="M22.093,22.375l8.092,6.059c0.471-0.544,0.904-1.112,1.297-1.701l-7.639-5.721L22.093,22.375z"/>
      <path d="M14.913,8.98L7.196,3.203C7.003,3.341,6.812,3.482,6.623,3.629C6.227,3.938,5.849,4.261,5.487,4.597l7.676,5.747 L14.913,8.98z"/>
      <path d="M25.592,19.649l6.972,5.221c0.33-0.662,0.615-1.341,0.855-2.033l-6.077-4.55L25.592,19.649z"/>
      <path d="M26.448,2.706L0.88,22.626c0.233,0.698,0.513,1.386,0.839,2.059l26.52-20.663C27.667,3.541,27.068,3.102,26.448,2.706z"/>
      <path d="M30.743,6.624c-0.301-0.386-0.614-0.754-0.939-1.106L2.786,26.567c0.262,0.402,0.542,0.797,0.843,1.183 c0.142,0.183,0.288,0.359,0.436,0.534L31.155,7.176C31.021,6.99,30.886,6.806,30.743,6.624z"/>
      <path d="M32.298,8.999L5.552,29.838c0.544,0.501,1.114,0.962,1.708,1.382l25.962-20.228C32.959,10.314,32.651,9.648,32.298,8.999z"/>
    </g>
  </symbol>

  <symbol viewBox="46.212 56.834 46.575 27.332" id="icon-feature-money">
    <path fill="#63d1bb" d="M88.882,56.834H50.116c-2.156,0-3.904,1.749-3.904,3.905v19.521c0,2.156,1.748,3.905,3.904,3.905h38.766 c2.156,0,3.905-1.749,3.905-3.905V60.739C92.787,58.583,91.038,56.834,88.882,56.834z M49.235,81.784V59.551h40.202v22.233H49.235z" />
    <path fill="#63d1bb" d="M53.14,77.88h32.395V63.456H53.14V77.88z M69.5,65.354c2.936,0,5.315,2.38,5.315,5.314c0,2.936-2.379,5.314-5.315,5.314 s-5.314-2.379-5.314-5.314C64.185,67.733,66.564,65.354,69.5,65.354z"/>
  </symbol>

  <symbol viewBox="47.475 50.071 33.05 27.857" id="icon-feature-heart">
    <path fill="#63d1bb" d="M80.525,58.808c0-4.825-3.912-8.736-8.736-8.736c-3.405,0-6.348,1.951-7.789,4.793 c-1.441-2.842-4.384-4.793-7.789-4.793c-4.825,0-8.736,3.911-8.736,8.736c0,9.127,14.657,19.121,16.525,19.121 C65.869,77.929,80.525,67.979,80.525,58.808z"/>
  </symbol>

  <symbol viewBox="612.532 500.386 54.156 23.183" id="icon-feature-rocket">
    <g>
      <path fill="#63d1bb" d="M652.844,506.098c-3.647-0.971-7.839-1.667-12.359-1.666c-2.891,0.001-5.457,0.243-7.71,0.623l-6.784-4.668l-13.456,0.005 l5.811,6.184h8.447c-4.58,1.598-6.759,3.515-6.759,3.515l0.002,3.777c0,0,2.313,1.912,6.931,3.518l-8.623-0.005l-5.811,6.188 l13.455,0.002l6.816-4.692c2.261,0.398,4.822,0.647,7.681,0.648c4.522-0.001,8.712-0.697,12.36-1.667 c-1.176-1.775-1.915-3.743-1.918-5.877C650.93,509.842,651.665,507.871,652.844,506.098z"/>
      <path fill="#63d1bb" d="M656.267,507.132c-1.284,1.605-1.969,3.25-1.965,4.84c-0.007,1.597,0.677,3.238,1.968,4.847 c6.399-2.162,10.419-4.841,10.419-4.841S662.67,509.298,656.267,507.132z"/>
    </g>
  </symbol>

  <symbol viewBox="239.665 239.757 32.666 32.486" id="icon-feature-gift">
    <path fill="#63d1bb" d="M242.56,272.243h12.504v-13.91H242.56V272.243z M270.742,248.623h-7.335 c0.521-0.267,0.984-0.549,1.396-0.845c1.588-1.133,2.424-2.57,2.42-3.999c0.002-1.169-0.556-2.202-1.359-2.901 c-0.805-0.704-1.869-1.119-3.016-1.121c-1.22-0.001-2.352,0.421-3.32,1.069c-1.459,0.979-2.606,2.451-3.424,4.067 c-0.039,0.079-0.078,0.157-0.115,0.236c-0.299-0.623-0.647-1.226-1.041-1.792c-0.691-0.985-1.523-1.86-2.497-2.511 c-0.97-0.646-2.103-1.069-3.322-1.069c-1.213,0.004-2.323,0.514-3.155,1.295c-0.828,0.783-1.41,1.885-1.412,3.135 c-0.002,0.73,0.211,1.494,0.649,2.188c0.552,0.872,1.424,1.628,2.633,2.248h-6.588c-0.878,0-1.591,0.712-1.591,1.59v5.897h15.396 v-7.488h1.873v7.488h15.396v-5.897C272.333,249.334,271.621,248.623,270.742,248.623 M248.38,246.284 c-0.622-0.391-1-0.785-1.22-1.135c-0.22-0.354-0.294-0.662-0.296-0.963c-0.004-0.504,0.248-1.042,0.691-1.461 c0.437-0.415,1.028-0.667,1.562-0.667h0.013c0.685,0,1.366,0.231,2.046,0.683c1.018,0.671,1.975,1.85,2.645,3.187 c0.342,0.676,0.609,1.39,0.789,2.087C251.528,247.694,249.532,247.013,248.38,246.284 M258.917,244.657 c0.557-0.797,1.21-1.466,1.887-1.916c0.68-0.451,1.362-0.683,2.047-0.683h0.006c0.574,0,1.117,0.22,1.494,0.55 c0.377,0.336,0.571,0.739,0.573,1.171c-0.004,0.512-0.272,1.259-1.467,2.132c-1.138,0.825-3.101,1.673-6.127,2.265 C257.62,246.974,258.177,245.704,258.917,244.657 M256.937,272.243h12.506v-13.91h-12.506V272.243z"/>
  </symbol>

  <symbol viewBox="53.115 53.19 21.769 21.334" id="icon-instagram">
    <path d="M74.881,65.336c-0.013-2.395-0.344-4.788-0.303-7.135c-0.023-0.788-0.086-1.535-0.152-2.278 c-0.105-0.3-0.111-0.699-0.152-1.062c-0.26-0.17-0.222-0.64-0.456-0.835c-0.423-0.233-1.201-0.114-1.744-0.22 c-0.657-0.026-1.254-0.115-1.899-0.153c-1.936-0.101-3.973-0.076-5.996-0.076c-2.001,0-3.954-0.145-5.695-0.379h-2.202 c-0.097,0.004-0.105,0.098-0.227,0.076c-0.599,0.034-1.077,0.188-1.595,0.303c-0.21,0.119-0.421,0.235-0.683,0.304 c-0.136,0.192-0.513,0.145-0.607,0.379c-0.186,0.212,0.185,0.451,0,0.607v0.911c0.173,0.13,0.027,0.58,0.075,0.835v0.987 c-0.017,1.281,0.134,2.397,0.076,3.72c0.467,2.762,0.374,6.537,0.076,9.413c0.155,0.579,0.363,1.105,0.455,1.746 c0.256,0.479,0.335,1.133,0.683,1.52c0.502,0.206,1.233,0.186,1.898,0.229c0.383,0.098,0.667,0.293,1.14,0.30 c2.843-0.21,5.496-0.154,8.427-0.229c2.704,0.24,5.802,0.188,8.275-0.228c0.195-0.134,0.128-0.529,0.228-0.76 c-0.056-0.385,0.207-0.449,0.228-0.759C74.862,70.157,74.895,67.763,74.881,65.336z M61.899,59.111 c0.757-0.153,1.48-0.341,2.429-0.304c0.71,0.076,1.287,0.283,1.897,0.456c0.116,0.184-0.243,0.547,0.153,0.684v0.076 c0.059,0.017,0.149,0.002,0.151,0.076c0.445,0.035,0.794,0.167,1.063,0.379c0.45,0.055,0.536,0.476,1.138,0.3 c-0.091,0.213-0.084,0.524-0.075,0.835c0.324,1.183,0.475,2.81,0.303,4.252c-0.164,0.163-0.215,0.442-0.303,0.683 c-0.311,0.322-0.481,0.785-0.836,1.062c-0.095,0.236-0.25,0.408-0.454,0.533c-0.116,0.213-0.206,0.452-0.457,0.53 c-0.298,0.163-0.577,0.011-0.834-0.076c-0.446,0.162-0.904,0.312-1.215,0.607c-0.816-0.096-1.648-0.175-2.43-0.304 c-0.242-0.139-0.487-0.273-0.835-0.305c-0.227-0.204-0.496-0.364-0.836-0.455c-0.101-0.127-0.337-0.118-0.455-0.229 c-0.198-0.029-0.229-0.227-0.456-0.229c-0.118-0.412-0.443-0.618-0.532-1.062c-0.226-0.331-0.308-0.805-0.455-1.215 c-0.043-1.434,0.091-2.692,0.379-3.796c0.346-0.591,0.779-1.094,1.138-1.67c0.249,0.021,0.365-0.09,0.38-0.304 c0.306,0.053,0.434-0.072,0.684-0.075C61.698,59.568,61.71,59.251,61.899,59.111z M60.229,56.378 c-0.117-0.263-0.066-0.691-0.075-1.062c-0.007-0.285,0.278-0.279,0.304-0.532c-0.003-0.074-0.093-0.059-0.152-0.076 c0.126-0.146,0.701-0.097,0.834,0c0.132,0.537-0.354,0.455-0.531,0.684c0.011,0.167,0.322,0.032,0.456,0.076 c0.029,0.854-0.059,1.496,0,2.202h-0.456c-0.007,0.234,0.229,0.226,0.456,0.228c-0.059,0.286,0.092,0.363,0.075,0.607 c-0.226,0.153-0.716,0.042-1.062,0.075C59.975,57.986,60.313,57.205,60.229,56.378z M59.546,54.784 c0.088-0.013,0.134,0.016,0.151,0.076c0.179,0.253,0.01,0.683-0.076,0.911C59.448,55.592,59.595,55.089,59.546,54.784z M59.698,56.606c-0.132-0.069-0.168-0.237-0.152-0.456C59.678,56.221,59.713,56.388,59.698,56.606z M59.698,57.973 c-0.058,0.139-0.082-0.045-0.076-0.152C59.68,57.682,59.703,57.866,59.698,57.973z M59.546,58.201 c0.175-0.024,0.084,0.219,0.228,0.227c-0.009,0.193-0.283,0.179-0.38,0.077C59.433,58.393,59.507,58.312,59.546,58.201z M57.192,56.985c0.006-0.108,0.013-0.214-0.076-0.228c-0.073-0.733,0.13-1.415,0-1.973c0.25-0.155,0.769-0.042,1.139-0.077v1.139 c-0.088,0.064-0.203,0.101-0.379,0.077c-0.054,0.28,0.324,0.131,0.379,0.304c0.008,0.853-0.056,1.777,0.152,2.429 c-0.565-0.059-0.906,0.107-1.442,0.076c0.097-0.612-0.019-1.435,0.531-1.594C57.484,56.997,57.239,57.091,57.192,56.985z M56.661,56.985c-0.204,0.021-0.217-0.534-0.077-0.607C56.912,56.384,56.833,56.879,56.661,56.985z M56.509,57.973 c0.077-0.312,0.034-0.304,0.075-0.683C56.812,57.303,56.844,58.06,56.509,57.973z M56.737,55.923 c-0.263,0.054-0.273-0.266-0.153-0.38C56.847,55.49,56.856,55.81,56.737,55.923z M56.737,54.784 c0.033,0.159-0.052,0.201-0.076,0.304c-0.176,0.023-0.084-0.219-0.229-0.229C56.457,54.757,56.623,54.797,56.737,54.784z M56.509,58.505c0.148-0.031,0.11,0.345-0.076,0.227C56.473,58.67,56.512,58.608,56.509,58.505z M55.825,54.784 c0.029,0.259-0.438,0.32-0.379,0H55.825z M54.838,54.86c-0.034,0.219-0.326,0.179-0.379,0.379 C54.245,55.069,54.543,54.771,54.838,54.86z M54.383,55.619c0.226-0.205,0.451-0.41,0.684-0.607 c-0.021-0.123,0.071-0.131,0.076-0.228h0.229c0.102,0.381-0.261,0.296-0.305,0.531c0.021,0.122-0.072,0.131-0.075,0.227 c0.02,0.335,0.121,0.588,0.075,0.988c-0.27,0.008-0.276,0.28-0.607,0.227C54.482,56.329,54.325,56.083,54.383,55.619z M54.459,58.884V57.29c0.195-0.185,0.396-0.364,0.607-0.532c0.295,0.489,0.179,1.392,0.455,1.897 C55.246,58.812,54.771,58.766,54.459,58.884z M72.68,69.968c-0.109,0.954-0.158,1.968-0.379,2.809 c-2.89,0.123-6.02,0.005-8.883,0.153c-0.199,0.045-0.273-0.031-0.229-0.229c-0.253,0-0.258,0.247-0.531,0.229 c0.201-0.336,0.438-0.898,0.151-1.291c-0.797,0.013-0.797,0.821-1.138,1.291c-0.686-0.053-1.137,0.127-1.823,0.075 c0.18-0.705,0.75-1.021,0.911-1.745c-0.395-0.55-0.989,0.138-1.214,0.455c-0.204,0.48-0.557,0.81-0.76,1.29H57.8 c0.238-0.469,0.489-0.926,0.759-1.366c0.171-0.512,0.625-0.741,0.683-1.367c-0.157-0.28-0.42-0.029-0.683,0 c-0.123,0.182-0.272,0.335-0.38,0.531c-0.232,0.376-0.501,0.714-0.684,1.14c-0.181,0.208-0.335,0.003-0.53,0.227 c-0.389,0.271-0.581,0.736-0.988,0.987c-0.174-0.06,0.039-0.356,0.153-0.38c0.045-0.181-0.096-0.55,0.075-0.607 c0.063-0.366,0.212-0.647,0.379-0.91c0.119-0.742,0.521-1.199,0.684-1.898c-0.559,0.099-0.674,0.643-0.988,0.987 c-0.212,0.445-0.542,0.772-0.683,1.291c-0.174-0.131-0.028-0.58-0.076-0.836c0.122-0.586,0.298-1.119,0.38-1.746 c0.133-0.22,0.173-0.535,0.228-0.834c0.168-0.209,0.046-0.61-0.077-0.761c-0.226,0.027-0.374,0.133-0.455,0.304 c-0.192-0.032-0.193,0.506-0.304,0.304c-0.045-2.587-0.451-4.812-0.456-7.438c0.026-0.331-0.183-0.424-0.228-0.685 c1.629,0.028,3.121,0.091,4.783,0.229c-0.089,0.139-0.199,0.257-0.304,0.379c-0.144,0.07-0.226,0.173-0.378,0.304 c-0.604,1.653-0.975,3.984-0.607,6.15c0.229,0.58,0.589,1.029,0.986,1.441c0.907,0.485,1.635,1.149,2.506,1.671 c1.701,0.361,3.84,0.369,5.541,0c0.236-0.12,0.484-0.226,0.685-0.38c1.364-1.242,2.753-2.459,2.961-4.859v-1.367 c-0.197-1.598-0.688-2.905-1.747-3.644c0.331-0.22,1.099,0.043,1.67,0.076c0.223,0.013,0.447,0.014,0.684,0 c0.408-0.024,0.928-0.055,1.443,0c0.144,0.187,0.113,0.544,0.228,0.76c-0.062,1.684-0.192,3.3-0.152,5.087 c0.103,0.454,0.127,0.986,0.229,1.441C73.046,68.209,72.9,69.126,72.68,69.968z M73.059,58.808 c-0.639-0.12-1.232-0.284-1.897-0.379c0.072-0.333,0.799-0.01,0.987-0.228c0.385-0.223,0.295-0.92,0.304-1.51 c0.032-0.348,0.114-0.644,0.076-1.063c-0.401-0.951-1.783-0.421-2.886-0.455c-0.225,0.718-0.47,1.8-0.304,2.657 c0.169,0.49,1.024,0.292,1.519,0.456c-0.14,0.332-0.688,0.057-0.987,0.076c-0.296-0.083-0.707-0.052-0.986-0.151 c-2.285,0.078-4.284,0.004-6.529,0.151c0.117-1.248,0.063-2.465-0.076-3.645h3.112c-0.344,0.364-0.912,0.507-1.29,0.835 c-0.44,0.244-0.861,0.505-1.139,0.911c0.249,0.134,0.535-0.245,0.759-0.379c0.355-0.074,0.479-0.381,0.835-0.455 c0.423-0.438,1.096-0.625,1.67-0.912c0.378-0.022,0.697,0.013,0.987,0.077c1.283,0.007,2.456,0.126,3.796,0.076 c0.614,0.145,1.45,0.069,1.974,0.304c0.107,0.298,0.231,0.579,0.305,0.911C73.297,57.071,73.14,57.901,73.059,58.808z M67.214,55.088C67.324,55.041,67.205,54.996,67.214,55.088L67.214,55.088z M67.214,55.088c-0.529,0.154-1.019,0.348-1.367,0.682 C66.331,55.572,66.906,55.464,67.214,55.088z M68.276,55.695C68.387,55.648,68.269,55.604,68.276,55.695L68.276,55.695z M66.53,56.606c0.727-0.158,1.181-0.591,1.746-0.911c-0.437,0.019-0.592,0.32-0.987,0.379 C67.074,56.291,66.689,56.334,66.53,56.606z M65.847,55.771C65.736,55.818,65.854,55.863,65.847,55.771L65.847,55.771z M65.164,56.378C65.274,56.332,65.156,56.286,65.164,56.378L65.164,56.378z M65.089,56.454c0.063,0.014,0.07-0.03,0.075-0.076 C65.1,56.364,65.092,56.408,65.089,56.454z M65.012,56.53c0.064,0.014,0.072-0.03,0.077-0.076 C65.022,56.441,65.017,56.483,65.012,56.53z M64.178,57.138c0.346-0.134,0.613-0.348,0.834-0.607 C64.664,56.664,64.397,56.878,64.178,57.138z M66.454,58.125c0.533-0.049,0.749-0.416,1.215-0.531 c0.284-0.298,0.784-0.381,0.987-0.76c-0.56,0.023-0.766,0.399-1.216,0.531C67.156,57.662,66.689,57.778,66.454,58.125z M64.178,57.138C63.861,57.064,64.162,57.365,64.178,57.138L64.178,57.138z M63.645,57.517c0.021,0.021,0.115-0.037,0.076-0.077 C63.7,57.42,63.605,57.478,63.645,57.517z M66.454,58.125C66.344,58.172,66.461,58.216,66.454,58.125L66.454,58.125z M65.314,59.946c-0.223-0.231-0.676-0.233-0.986-0.379c-0.697-0.038-1.223,0.093-1.746,0.229c-0.304,0.151-0.607,0.304-0.91,0.454 c-0.266,0.166-0.444,0.417-0.76,0.532c-0.205,0.225-0.352,0.51-0.684,0.607c-0.004,0.223-0.173,0.281-0.304,0.379 c-0.089,0.115-0.094,0.312-0.227,0.381c-0.007,0.12,0.036,0.29-0.076,0.303c0.108,1.512,0.291,2.948,0.683,4.177 c0.287,0.623,0.975,0.846,1.442,1.29c0.589,0.297,1.328,0.444,2.126,0.531c0.277-0.052,0.553-0.105,0.911-0.076 c1.209-0.209,2.098-0.736,2.81-1.441c0.1-0.281,0.252-0.508,0.455-0.684c-0.254-0.671,0.293-1.098,0.455-1.59 c0.002-1.344-0.201-2.48-0.607-3.415c-0.256-0.579-0.92-0.751-1.366-1.139c-0.059-0.018-0.15-0.003-0.151-0.077 C66.11,59.892,65.646,59.789,65.314,59.946z M61.899,64.273c-0.113-0.063-0.109-0.244-0.152-0.379 C62.003,63.816,61.865,64.131,61.899,64.273z M61.975,64.578c0.041-0.117,0.079-0.006,0.076,0.075 C62.011,64.771,61.972,64.658,61.975,64.578z M62.431,62.527c0.015-0.086,0.075-0.042,0.075,0 C62.492,62.614,62.431,62.57,62.431,62.527z M64.101,60.402c-0.203,0.258,0.041,0.576,0.077,0.836 C63.873,61.199,63.604,60.351,64.101,60.402z M64.48,64.35c-0.04-0.038,0.055-0.097,0.076-0.076 C64.596,64.312,64.502,64.371,64.48,64.35z M65.239,67.234c0.034-0.109,0.066,0.008,0.152,0 C65.373,67.331,65.241,67.311,65.239,67.234z M67.44,64.653c-0.233-0.057-0.145,0.208-0.379,0.152 c0.069-0.159,0.118-0.338,0.229-0.455C67.424,64.369,67.462,64.48,67.44,64.653z M66.303,60.857 c0.211,0.119,0.441,0.217,0.606,0.381c0.085,0.219,0.243,0.363,0.38,0.529c0.058,0.778,0.179,1.492,0.151,2.354 c-0.257,0.099-0.438,0.271-0.683,0.381c-0.78-0.006-1.358-0.212-1.897-0.456c-0.171-0.259-0.355-0.505-0.532-0.759v-1.062 c0.17-0.185,0.319-0.391,0.456-0.607c0.228-0.127,0.508-0.201,0.454-0.607c-0.038-0.062-0.078-0.124-0.075-0.229 c0.158,0.045,0.245,0.159,0.379,0.229C65.865,61.028,65.952,60.811,66.303,60.857z"/>
  </symbol>

  <symbol viewBox="56.519 49.996 14.962 27.718" id="icon-facebook">
    <path d="M68.181,55.188c1.026,0.029,1.993,0,2.681-0.3c0.391-0.818,0.556-1.854,0.619-2.989 c-0.19-0.015-0.062-0.337-0.207-0.399c-0.029-0.202-0.278-0.195-0.309-0.398c-0.277-0.165-0.457-0.422-0.723-0.598 c-0.727-0.162-1.44-0.335-2.164-0.499c-0.849,0.044-1.895-0.103-2.58,0.1c-2.619-0.04-3.997,1.12-5.259,2.392 c-0.023,0.078-0.003,0.197-0.105,0.199c-0.574,1.587-0.125,3.621-0.204,5.581c0.099,0.436,0.107,0.958,0.204,1.395 c-0.998,0.296-2.212,0.387-3.402,0.499c-0.317,0.324-0.178,1.089-0.206,1.693c0.085,0.583,0.278,1.06,0.413,1.595 c0.211,0.193,0.596,0.396,0.825,0.498c0.065,0.029,0.071,0.082,0.103,0.1c0.506,0.268,1.451,0.008,2.268,0.1 c-0.136,1.978,0.256,3.915,0,5.68c0.007,0.327,0.295,0.382,0.208,0.798c-0.001,0.963-0.067,1.99,0.208,2.69 c-0.287,0.455-0.497,0.982-0.415,1.794c0.122,0.016,0.114,0.157,0.105,0.299c-0.075,0.47,0.643,0.175,0.515,0.698 c0.162,0.456-0.428,0.184-0.413,0.498v0.896c0.53,0.285,1.462,0.182,2.268,0.199c0.908-0.419,2.188-0.479,2.785-1.196 c0.459,0.235,0.916-0.014,1.238-0.199c-0.018-0.315,0.273-0.333,0.205-0.698c-0.004-0.328-0.173-0.496-0.103-0.896V71.83 c-0.206-2.293-0.048-4.938-0.309-7.176c0.888-0.105,1.917-0.075,2.578-0.398c0.357-0.451,0.377-1.23,0.516-1.895 c0.177-0.226,0.221-0.583,0.206-0.996c0.19-0.213,0.068-0.729,0.104-1.096c-0.141-0.595-0.168-1.3-0.825-1.39 c-0.884-0.235-2.043,0.595-2.991,0.299c0.049-1.134-0.293-2.342,0-3.388C66.761,55.609,67.461,55.39,68.181,55.188z M64.363,59.971c0.117,0.254,0.254,0.486,0.414,0.698c0.079,0.022,0.203,0.003,0.205,0.101c1.192,0.056,2.199-0.069,3.096-0.299 c0,0.998-0.271,1.733-0.518,2.492c-0.662,0.045-1.467,0.3-1.958,0.198c-0.276,0.165-0.372,0.506-0.62,0.698 c-0.049,0.441,0.142,0.495,0,0.797c-0.201,0.137-0.055,0.611-0.205,0.796v1.496c0.085,0.281-0.146,0.258-0.104,0.497v3.488 c-0.085,0.281,0.146,0.258,0.104,0.498v2.989c0.063,0.271-0.132,0.791,0.103,0.896c-0.07,0.364-0.412-0.021-0.824,0.1 c-0.528,0.122-0.926,0.369-1.548,0.4c0.117-0.353,0.32-0.622,0.311-1.097c0.049-0.381-0.365-0.312-0.516-0.49 c0.193-0.644,0.562-1.117,0.722-1.793c0.197-0.515,0.714-1.298,0.31-1.794c-0.522-0.105-0.521,0.293-0.826,0.398 c-0.022,0.077-0.002,0.196-0.103,0.199c-0.023,0.077-0.003,0.196-0.103,0.199c0.01,0.12-0.151,0.062,0,0 c0.022-0.078,0.002-0.197,0.103-0.199c0.023-0.077,0.002-0.197,0.103-0.199v-0.299c0.368-0.575,0.67-1.214,0.826-1.993 c0.191-0.28,0.283-0.656,0.412-0.997c0.156-0.262,0.34-0.869,0.104-1.195c-0.517,0.033-0.796,0.295-0.93,0.697 c-0.32-0.189,0.161-0.434,0.104-0.697c0.138-0.231,0.169-0.566,0.309-0.797c0.202-0.413,0.564-1.304,0-1.596 c-0.438-0.023-0.612,0.207-0.723,0.498c-0.214,0.191-0.43,0.383-0.516,0.698c-0.373-0.07-0.143-0.727-0.206-1.097 c-0.067-0.52,0.122-0.899,0-1.195c-0.56-0.799-2.026-0.105-3.197-0.299c-0.108-0.307-0.222-0.984-0.104-1.195 c1.045-0.088,2.479,0.201,3.197-0.199c0.024-0.078,0.003-0.197,0.104-0.199c0.094-0.723-0.271-1-0.515-1.396 c0.232-0.806,0.04-2.02,0.104-2.989c0.233-0.141,0.328-0.414,0.515-0.598c0.112-0.955,0.673-1.476,0.722-2.49 c-0.273,0.001-0.607-0.055-0.619,0.199c-0.302-0.114-0.382,0.479-0.515,0.199c-0.112-0.541,0.246-0.626,0.309-0.997 c0.599-0.418,1.212-0.82,1.856-1.195c1.741-0.244,4.648-0.449,6.086,0.198c0.051,0.616-0.287,0.854-0.207,1.496h-1.546 c-1.092,0.24-1.987,0.672-2.991,0.997c-0.24,0.066-0.276,0.331-0.516,0.398c-0.036,0.396-0.225,0.646-0.311,0.996 C64.182,57.424,64.394,58.582,64.363,59.971z"/>
  </symbol>

  <symbol viewBox="52.253 53.771 23.494 20.168" id="icon-twitter">
    <path d="M75.706,57.855c-0.227-0.366-0.909-0.277-1.407-0.371h-1.112c0.142-0.353,0.343-0.646,0.52-0.963 c0.056-0.438,0.254-0.734,0.223-1.26c0.129-0.167,0.176-0.417,0.296-0.593c0.104-0.144,0.242-0.477,0.074-0.667 c-0.051-0.221-0.295-0.249-0.593-0.222c-0.088,0.036-0.169,0.079-0.222,0.148c-0.448,0.433-0.778,1.014-1.261,1.408 c-0.009,0.008-0.062,0-0.074,0c-0.087,0.005-0.033,0.046-0.075,0.074c-0.146,0.098-0.257,0.152-0.369,0.223 c-0.284,0.176-0.547,0.445-0.891,0.519c-0.529-0.211-1.156-0.326-1.852-0.37c-1.157,0.102-2.303,0.215-3.038,0.741 c-0.911,0.35-1.477,1.042-2.149,1.63c-0.049,0.32-0.342,0.398-0.37,0.741c-0.005,0.045-0.012,0.088-0.073,0.074 c0.043,0.241-0.051,0.345-0.074,0.519c-0.001,0.133,0.199,0.431,0,0.52c-0.822-0.12-1.485-0.63-2.149-0.964 c-0.718-0.36-1.468-0.604-2.074-1.111c-0.716-0.322-1.26-0.816-1.778-1.334c-0.208-0.312-0.542-0.496-0.667-0.89 c-0.379-0.164-0.175-0.912-0.741-0.889c-0.315-0.043-0.345,0.199-0.444,0.37c-0.07,0.227-0.361,0.232-0.371,0.519 c-0.004,0.046-0.011,0.088-0.074,0.075c-0.17,1.089-0.527,1.992-0.519,3.26c0.129,0.415,0.35,0.738,0.593,1.038 c-0.418,0.051-0.716,0.222-0.89,0.519c-0.06,1.073,0.378,1.647,0.742,2.297c0.134,0.384,0.352,0.685,0.593,0.963 c0.017,0.229,0.206,0.288,0.296,0.445c0.019,0.105,0.123,0.125,0.149,0.223c-0.04,0.105,0.289,0.18,0.073,0.221 c-0.413,0.131-1.016,0.07-1.259,0.371c-0.109,0.279-0.109,0.833,0,1.111c0.034,0.237,0.282,0.262,0.296,0.519 c0.499,0.417,1.082,0.747,1.631,1.112c0.574,0.166,1.211,0.271,1.852,0.37c-0.102,0.343-0.338,0.551-0.593,0.741 c-0.78,0.381-1.849,0.474-2.742,0.74c-0.555,0.038-0.956,0.23-1.556,0.223c-0.333,0.127-0.854,0.075-1.112,0.223 c-0.122,0.068-0.102,0.096-0.222,0.221c-0.134,0.412,0.111,0.74,0.444,0.89c-0.005,0.253,0.219,0.276,0.371,0.371 c0.089,0.183,0.254,0.29,0.445,0.37c0.544,0.468,1.268,0.759,1.927,1.112c0.83,0.183,1.648,0.376,2.52,0.519 c0.896,0.116,1.901,0.124,2.816,0.222h0.963c0.511,0.132,1.23,0.054,1.853,0.074c0.095-0.102,0.322-0.073,0.519-0.074 c0.522-0.269,1.196-0.385,1.631-0.74c0.574-0.241,0.989-0.642,1.557-0.89c0.866-0.765,1.937-1.324,2.519-2.37 c0.205-0.189,0.351-0.438,0.445-0.74c0.265-0.156,0.385-0.454,0.593-0.667c0.404-0.41,0.706-0.924,1.037-1.40 c0.319-0.496,0.576-1.054,0.89-1.556c-0.01-0.405,0.306-0.484,0.296-0.89c0.193-0.226,0.177-0.662,0.371-0.88 c-0.033-0.255,0.029-0.415,0.074-0.594c0.047-1.281-0.047-2.422-0.297-3.407c0.588-0.155,1.181-0.302,1.631-0.593 C75.418,58.93,75.891,58.533,75.706,57.855z M72.298,61.931c-0.153,0.859-0.615,1.41-1.038,2.001 c0.059,0.379-0.104,0.538-0.073,0.889c-0.158,0.312-0.287,0.652-0.371,1.037c-0.203,0.267-0.332,0.606-0.519,0.89 c-0.366,0.548-0.777,1.051-1.186,1.557c-0.378,0.56-0.912,0.965-1.334,1.481c-0.42,0.493-0.942,0.885-1.407,1.334 c-0.474,0.17-0.89,0.396-1.26,0.667c-0.232,0.09-0.463,0.18-0.667,0.296c-0.177,0.146-0.499,0.145-0.668,0.29 c-1.086,0.147-2.3,0.17-3.555,0.148c-1.031-0.105-2.115-0.159-3.039-0.371c-0.922-0.189-1.511-0.712-2.297-1.037 c0.153-0.242,0.634-0.154,0.963-0.222c0.031-0.166,0.394-0.003,0.444-0.149c0.257,0.06,0.285-0.109,0.52-0.07 c0.563-0.201,1.23-0.302,1.705-0.593c0.282-0.138,0.406-0.434,0.667-0.593c0.033-0.189,0.104-0.341,0.222-0.444 c0.047-0.275,0.201-0.441,0.148-0.815c0.111-0.21,0.299-0.343,0.296-0.667c-0.074-0.147-0.128-0.316-0.296-0.371 c-0.026-0.196-0.377-0.067-0.444-0.222c-0.255,0.032-0.416-0.029-0.593-0.075c-0.154-0.043-0.487,0.092-0.519-0.073 c-0.842-0.023-1.3-0.43-1.853-0.74c0.431-0.262,1.032-0.353,1.333-0.742c0.516-0.076,1.058-0.129,1.112-0.666 c0-0.717-0.771-0.661-1.333-0.815c-0.773-0.66-1.194-1.672-1.779-2.52c0.238-0.157,0.564-0.226,0.741-0.444 c0.454,0.058,0.54-0.251,0.667-0.52c0.019-0.488-0.333-0.605-0.593-0.815c-0.259-0.21-0.475-0.462-0.667-0.74 c-0.003-0.818-0.021-1.652,0.074-2.372c0.063-0.014,0.07,0.029,0.074,0.074c0.227,0.441,0.559,0.775,0.815,1.186 c0.532,0.357,0.925,0.853,1.556,1.112c0.452,0.413,1.108,0.621,1.557,1.038c0.601,0.263,1.158,0.57,1.704,0.889 c0.669,0.194,1.056,0.673,2.001,0.593c0.198-0.098,0.394-0.199,0.593-0.297c0.258-0.456-0.059-1.079,0.147-1.63 c0.255-0.659,0.797-1.031,1.26-1.481c0.29-0.155,0.555-0.335,0.815-0.519c0.347-0.098,0.675-0.216,0.964-0.37 c0.376-0.019,0.713-0.077,1.037-0.148h1.26c0.244,0.052,0.475,0.119,0.74,0.148c0.209,0.137,0.38,0.313,0.666,0.371 c0.789,0.693,1.271,1.696,1.409,3.039C72.175,60.934,72.35,61.323,72.298,61.931z M72.594,56.299 c-0.129,0.34-0.23,0.707-0.593,0.815c-0.017-0.105-0.122-0.125-0.147-0.222c-0.012-0.209,0.209-0.186,0.296-0.296 C72.312,56.511,72.395,56.348,72.594,56.299C72.587,56.209,72.702,56.253,72.594,56.299z M67.11,59.337 c0.163,0.135,0.284,0.31,0.519,0.371c0.101,0.221,0.314,0.327,0.594,0.37c0.047-0.15,0.346-0.049,0.37-0.222 c0.174-0.023,0.166-0.229,0.296-0.297c-0.018-0.55-0.129-1.006-0.37-1.333C67.761,57.803,66.843,58.265,67.11,59.337z"/>
  </symbol>

  <symbol viewBox="0 0 27 33" id="logo-htmla">
    <path d="M13.62,0.017L13.472,0L0,1.412v24.661l13.473,8.017l13.43-7.99l0.042-0.025V1.412L13.62,0.017z M25.019,12.127L13.495,5.334 L13.494,5.23l-0.087,0.05l-0.088-0.056v0.109L1.925,12.118V3.147l11.548-1.212l11.547,1.212V12.127z M13.405,6.787L24.923,13.5 l-4.479,2.64l-7.093-4.221l-0.014,1.415l5.904,3.513l-0.86,0.507l-5.03-2.992l-0.014,1.415l3.827,2.275l-0.782,0.523l-3.031-1.787 l-0.014,1.413l1.853,1.091l-1.8,1.081L2.034,13.622L13.405,6.787z M1.925,15.127l11.411,6.791l0.016,1.044L5.41,18.234L5.395,19.65 l7.979,4.795l0.018,1.076l-7.973-4.74l-0.013,1.414l8.021,4.822l0.046,0.025l8.143-4.872l-0.011-5.177l3.415-2.036v10.021 L13.472,31.85L1.925,24.979V15.127z"/>
  </symbol>

  <symbol viewBox="0 0 102 34" id="logo-footer">
    <g fill="#000000">
      <path d="M19.135,21.495c-0.083-2.683-0.51-5.347-0.475-8.035c0.028-2.174,0.389-4.41-0.36-6.495 c0.047-0.237,0.096-0.473,0.14-0.711c0.193-1.045-3.271-0.492-3.813,0.464c-0.343,0.28-0.519,0.615-0.375,0.957 c0.037,0.086,0.069,0.174,0.102,0.261c-0.656,3.204-1.57,6.306-2.621,9.412c-0.402,1.188-0.888,2.349-1.298,3.533 c-0.582-1.104-1.169-2.194-1.643-3.377C7.418,14.071,6.18,10.602,4.505,7.298C4.695,5.77,1.301,5.93,0.632,7.33 c-0.809,1.694-0.705,3.403-0.438,5.214c0.3,2.042,0.353,4.05,0.377,6.111c0.047,3.976,0.358,7.943,0.417,11.919 c-0.354,0.395-0.461,0.881-0.091,1.375c0.162,0.216,0.361,0.382,0.571,0.549c0.904,0.724,3.5,0.107,3.496-1.271 c-0.014-4.123-0.312-8.238-0.42-12.358c-0.011-0.404-0.018-0.807-0.024-1.21c0.057,0.145,0.114,0.29,0.171,0.434 c0.64,1.604,1.31,3.163,2.185,4.654c0.868,1.478,1.303,3.064,1.803,4.677c-0.189,0.217-0.303,0.462-0.233,0.708 c-0.039,0.18,0.07,0.292,0.251,0.36c0.639,0.548,1.841,0.274,2.509-0.007c0.287-0.121,0.561-0.261,0.826-0.424 c0.345-0.212,0.883-0.679,0.729-1.159c-0.03-0.093-0.058-0.186-0.087-0.279c0.47-1.27,0.709-2.589,0.965-3.93 c0.272-1.428,0.782-2.78,1.295-4.133c0.052,0.619,0.106,1.238,0.156,1.855c0.204,2.554,0.033,5.072,0.007,7.626 c-0.008,0.847,0.054,1.633,0.219,2.461c0.068,0.343,0.367,1.808,0.281,1.887c-0.611,0.564-0.433,1.257,0.385,1.437 c0.915,0.201,2.081-0.105,2.77-0.742c1.198-1.106,0.632-2.845,0.361-4.241C18.661,26.501,19.208,23.879,19.135,21.495z"/>
      <path d="M27.499,22.17c-0.074-1.988-0.765-3.862-0.774-5.872c-0.011-2.305,0.181-4.593-0.155-6.886 c-0.106-0.725-4.056,0.1-3.917,1.05c0.309,2.11,0.197,4.229,0.159,6.354c-0.037,2.044,0.468,3.898,0.73,5.904 c0.269,2.054-0.084,4.157,0.149,6.213c0.109,0.962,0.75,2.743,0.089,3.58c-0.42,0.532,1.469,0.342,1.553,0.326 c0.769-0.142,1.793-0.392,2.304-1.038c0.653-0.828,0.196-2.426,0.053-3.357C27.374,26.385,27.576,24.249,27.499,22.17z"/>
      <path d="M43.828,18.851c-2.062-2.784-5.889-0.78-8.561-1.54c-1.377-0.392-1.395-2.271-1.392-3.396 c0.004-1.426-0.114-2.732-0.273-4.146c-0.119-1.052-0.024-2.121,0.746-2.904c0.142-0.144,0.859-0.336,0.81-0.339 c0.354-0.061,0.676-0.076,1.067-0.093c1.549-0.066,4.613,0.232,4.019,2.483c-0.266,1.01,3.596,0.431,3.877-0.637 c1.213-4.598-7.284-3.714-9.686-3.078C32.225,5.789,29.787,7.047,29.66,9.6c-0.061,1.219,0.273,2.379,0.325,3.587 c0.061,1.39-0.198,2.776,0.289,4.118c1.082,2.982,5.52,1.576,7.778,1.745c3.845,0.287,2.697,5.469,2.748,7.883 c0.027,1.288,1.181,3.429,0.211,4.507c-0.595,0.662-1.982,0.699-2.792,0.768c-0.813,0.068-2.201,0.312-2.742-0.461 c-0.993-1.418,0.091-3.799-0.121-5.425c-0.121-0.924-4.066-0.095-3.917,1.05c0.342,2.627-1.399,6.145,2.402,6.596 c2.441,0.289,5.191-0.161,7.5-0.928c1.196-0.396,2.307-0.942,3.243-1.793c1.035-0.941,0.694-2.348,0.417-3.547 C44.324,24.782,45.732,21.421,43.828,18.851z"/>
      <path d="M61.155,18.662c-0.122-3.777-0.69-7.513-0.706-11.297c-0.008-1.971-3.963-1.305-3.957,0.343 c0.015,3.608,0.497,7.167,0.682,10.764c0.004,0.074,0.008,0.147,0.013,0.221c-1.949-0.018-3.899,0.177-5.853,0.246 c0.201-4.633-0.611-9.227-0.435-13.857c0.022-0.582-3.874-0.09-3.917,1.049c-0.171,4.475,0.587,8.915,0.453,13.392 c-0.064,2.136-0.245,4.264-0.259,6.402c-0.007,1.095,0.171,2.183,0.329,3.263c0.146,0.999,0.484,2.331,0.182,3.318 c-0.237,0.772,3.561,0.29,3.862-0.694c0.544-1.778-0.222-4.039-0.405-5.839c-0.175-1.725-0.039-3.499,0.083-5.248 c2.03-0.13,4.059-0.297,6.08-0.012c0.09,1.378,0.196,2.754,0.322,4.134c0.105,1.157,0.179,2.313,0.196,3.475 c0.015,1.019,0.142,2.496-0.221,3.461c-0.773,2.057,3.15,1.889,3.723,0.364c0.703-1.87,0.502-4.199,0.383-6.164 C61.562,23.54,61.233,21.109,61.155,18.662z"/>
      <path d="M78.087,23.136c-0.939-2.758-2.373-5.177-3.616-7.797c1.001-1.949,2.018-3.898,2.932-5.888 c0.831-1.808,1.446-3.819,3.08-5.092c0.574-0.447,0.55-0.896-0.255-0.951c-0.875-0.061-2.064,0.192-2.77,0.742 c-1.485,1.158-2.427,2.563-3.201,4.268c-0.932,2.051-1.896,4.063-2.914,6.075c-0.074,0.147-0.149,0.295-0.224,0.443 c-0.49,0.315-0.785,0.762-0.639,1.266c-0.792,1.563-1.6,3.117-2.499,4.61c-0.299-5.534-0.955-11.061-1.15-16.6 c-0.045-1.27-3.971-0.479-3.917,1.049c0.243,6.868,1.219,13.719,1.286,20.587c-0.016,0.017-0.031,0.034-0.047,0.051 c-0.301,0.308-0.19,0.494,0.051,0.602c0.002,1.75-0.059,3.501-0.209,5.254c-0.472,0.745,0.463,1.139,1.084,1.139 c0.032,0,0.064,0,0.096,0c0.739,0,2.626-0.35,2.718-1.364c0.191-2.1,0.251-4.196,0.232-6.291c1.59-1.715,2.89-3.63,4.055-5.635 c0.759,1.48,1.482,2.972,1.989,4.582c0.861,2.741,2.299,5.261,3.131,8.014c0.544,1.806,4.457,0.738,3.917-1.049 C80.388,28.398,79.013,25.854,78.087,23.136z"/>
      <path d="M101.59,18.501c-0.21-0.832-1.372-0.849-2.271-0.77c-0.012-0.335-0.02-0.671-0.036-1.006 c-0.125-2.661-0.165-5.379-0.392-8.032c-0.209-2.458-1.585-3.337-3.972-3.247c-2.416,0.092-5.229,0.527-7.482,1.403 c-2.607,1.014-4.058,2.935-4.559,5.681c-0.549,3.014,0.24,6.219,0.373,9.246c0.154,3.503,0.066,7.014,0.062,10.519 c0,0.573,3.916,0.031,3.917-1.049c0.003-2.776,0.042-5.551,0-8.327c-0.013-0.818-0.051-1.632-0.102-2.444 c1.369-0.593,3.687,0.012,5.05,0.141c1.107,0.104,2.169-0.166,3.244-0.292c0.021,2.312,0.107,4.635,0.202,6.944 c0.049,1.184,0.477,3.53-0.354,4.511c-0.437,0.516,1.48,0.343,1.555,0.33c0.793-0.146,1.761-0.401,2.303-1.041 c0.949-1.12,0.456-3.79,0.401-5.126c-0.078-1.91-0.102-3.824-0.141-5.737C100.542,20.058,101.805,19.351,101.59,18.501z M86.972,18.351c-0.103-1.245-0.217-2.49-0.303-3.743c-0.16-2.331,0.117-5.583,2.29-6.999c0.58-0.379,1.675-0.315,2.354-0.438 c0.97-0.176,1.956-0.389,2.829,0.19c1.21,0.802,0.912,3.657,0.911,4.869c-0.003,2.005,0.207,4.001,0.31,6.003 c-0.552,0.055-1.111,0.089-1.683,0.076C91.394,18.256,89.136,17.896,86.972,18.351z"/>
      <path d="M24.108,6.7c0.521-0.05,1.045-0.226,1.477-0.524c0.085-0.072,0.171-0.144,0.256-0.216c0.52-0.335,0.972-0.827,0.728-1.361 c-0.504-1.105-0.423-2.231-0.416-3.414c0.006-0.958-0.963-1.246-1.781-1.174c-0.723,0.063-2.168,0.581-2.175,1.52 c-0.006,0.993-0.071,2.016,0.109,2.992c-0.047,0.113-0.074,0.239-0.104,0.355c-0.055,0.212,0.016,0.42,0.142,0.59 c0,0.045,0.002,0.089,0.002,0.134c0.005,0.112,0.01,0.224,0.015,0.335c0.073,0.232,0.216,0.409,0.429,0.53 C23.178,6.7,23.668,6.742,24.108,6.7z"/>
    </g>
  </symbol>

  <symbol viewBox="0 0 148 73" id="logo">
    <g class="page-header__logo-mobile">
      <path d="M35.41,45.13c0-3.47-.26-6.94-.36-10.41,0-.34,0-.68,0-1l.15.36A28.74,28.74,0,0,0,37,38a18.09,18.09,0,0,1,1.52,3.94.65.65,0,0,0-.2.6c0,.15.06.24.21.31.54.46,1.55.23,2.11,0a5.42,5.42,0,0,0,.7-.35c.29-.18.74-.57.61-1l-.07-.24a20.36,20.36,0,0,0,.81-3.31,20.87,20.87,0,0,1,1.09-3.49c0,.52.09,1,.13,1.56.17,2.15,0,4.27,0,6.42a9.9,9.9,0,0,0,.18,2.08,8.5,8.5,0,0,1,.24,1.58.65.65,0,0,0,.33,1.21A2.8,2.8,0,0,0,47,46.68c1-.93.53-2.4.3-3.57-.38-2,.08-4.18,0-6.19-.07-2.26-.43-4.5-.4-6.77,0-1.83.33-3.71-.3-5.47,0-.2.08-.4.12-.6.16-.88-2.75-.41-3.21.39-.29.24-.44.52-.31.81l.08.22a65.76,65.76,0,0,1-2.21,7.93c-.34,1-.75,2-1.1,3a30.31,30.31,0,0,1-1.38-2.85c-1.15-2.89-2.2-5.81-3.61-8.6.16-1.29-2.7-1.15-3.26,0a7.29,7.29,0,0,0-.37,4.39,38.17,38.17,0,0,1,.32,5.15c0,3.35.3,6.69.35,10A.85.85,0,0,0,32,45.72a2.53,2.53,0,0,0,.48.46C33.23,46.81,35.41,46.29,35.41,45.13Z"/>
      <path d="M53.61,26.76c-.09-.61-3.42.08-3.3.89A33,33,0,0,1,50.44,33a33,33,0,0,0,.62,5c.23,1.73-.07,3.5.13,5.24.09.81.63,2.31.07,3-.35.45,1.24.28,1.31.28a3.26,3.26,0,0,0,1.94-.87c.55-.7.17-2,0-2.82a46.11,46.11,0,0,1-.16-5.29c-.06-1.68-.64-3.25-.65-4.95A40.77,40.77,0,0,0,53.61,26.76Z"/>
      <path d="M56.73,33.4c.91,2.51,4.65,1.33,6.55,1.47,3.24.24,2.27,4.61,2.31,6.64,0,1.08,1,2.89.18,3.8-.5.56-1.67.59-2.35.65s-1.85.26-2.31-.39c-.84-1.19.08-3.2-.1-4.57-.1-.78-3.42-.08-3.3.88.29,2.21-1.18,5.17,2,5.56A15.2,15.2,0,0,0,66,46.66a7.43,7.43,0,0,0,2.73-1.51c.87-.79.58-2,.35-3-.57-2.46.62-5.29-1-7.45-1.74-2.35-5-.66-7.21-1.3-1.16-.33-1.17-1.91-1.17-2.86a30.12,30.12,0,0,0-.23-3.49,2.87,2.87,0,0,1,.63-2.45,3.26,3.26,0,0,1,.68-.28,6.92,6.92,0,0,1,.9-.08c1.3-.06,3.88.19,3.39,2.09-.23.85,3,.36,3.27-.53,1-3.87-6.14-3.13-8.16-2.59-1.86.49-3.92,1.56-4,3.7-.05,1,.23,2,.27,3A11.15,11.15,0,0,0,56.73,33.4Z"/>
      <path d="M71.18,35.27c-.05,1.8-.21,3.59-.22,5.39a18.4,18.4,0,0,0,.28,2.75,7,7,0,0,1,.15,2.8c-.2.65,3,.24,3.25-.59.46-1.5-.19-3.4-.34-4.92a26,26,0,0,1,.07-4.42,25.17,25.17,0,0,1,5.12,0c.08,1.16.16,2.32.27,3.48.09,1,.15,1.95.16,2.93a8.88,8.88,0,0,1-.18,2.91c-.65,1.73,2.65,1.59,3.14.3a13.11,13.11,0,0,0,.32-5.19c-.13-2.06-.4-4.11-.47-6.17-.1-3.18-.58-6.33-.59-9.51,0-1.66-3.34-1.1-3.33.29,0,3,.42,6,.57,9.07,0,.06,0,.12,0,.18-1.64,0-3.28.15-4.93.21.17-3.9-.51-7.77-.36-11.67,0-.49-3.26-.08-3.3.88C70.66,27.76,71.3,31.5,71.18,35.27Z"/>
      <path d="M85.26,40.65c-.25.26-.16.41,0,.51,0,1.47-.05,2.95-.18,4.42-.4.63.39,1,.91,1h.08c.62,0,2.21-.29,2.29-1.15.16-1.77.21-3.53.2-5.3A26.53,26.53,0,0,0,92,35.34,25,25,0,0,1,93.7,39.2c.72,2.31,1.94,4.43,2.64,6.75.46,1.52,3.75.62,3.3-.88-.7-2.32-1.86-4.46-2.64-6.75a62.12,62.12,0,0,0-3-6.57c.85-1.64,1.7-3.28,2.47-5,.7-1.52,1.22-3.22,2.59-4.29.48-.38.46-.75-.22-.8a3.71,3.71,0,0,0-2.33.63,9,9,0,0,0-2.69,3.59c-.78,1.73-1.6,3.42-2.46,5.12l-.19.37a1,1,0,0,0-.54,1.06c-.67,1.32-1.35,2.63-2.1,3.88-.25-4.66-.8-9.32-1-14,0-1.07-3.35-.4-3.3.89.2,5.78,1,11.56,1.08,17.34Z"/>
      <path d="M116.8,34.41c-.18-.7-1.15-.72-1.91-.65,0-.28,0-.57,0-.85-.11-2.24-.14-4.53-.33-6.76-.18-2.07-1.33-2.81-3.35-2.73a20.37,20.37,0,0,0-6.3,1.18A5.89,5.89,0,0,0,101,29.38c-.46,2.54.2,5.24.31,7.79.13,3,.06,5.91.05,8.86,0,.48,3.3,0,3.3-.88,0-2.34,0-4.68,0-7,0-.69,0-1.37-.08-2.06,1.15-.5,3.11,0,4.25.12A12.79,12.79,0,0,0,111.6,36c0,1.95.09,3.9.17,5.85,0,1,.4,3-.3,3.8-.37.44,1.25.29,1.31.28a3.37,3.37,0,0,0,1.94-.87c.8-.94.38-3.19.34-4.32-.07-1.61-.09-3.22-.12-4.83C115.92,35.72,117,35.13,116.8,34.41Zm-6.66-.16a24.74,24.74,0,0,0-5.65,0c-.09-1.05-.18-2.1-.25-3.15-.13-2,.1-4.7,1.93-5.9a6.08,6.08,0,0,1,2-.37,3.1,3.1,0,0,1,2.38.16c1,.68.77,3.08.77,4.1,0,1.69.18,3.37.26,5.06A11.89,11.89,0,0,1,110.14,34.25Z"/>
      <path d="M49.93,22.94a.58.58,0,0,0,.12.5s0,.08,0,.11v.28a.77.77,0,0,0,.36.45,1.83,1.83,0,0,0,1.11.2A2.68,2.68,0,0,0,52.78,24l.22-.18c.44-.28.82-.7.61-1.15a6.47,6.47,0,0,1-.35-2.87c0-.81-.81-1.05-1.5-1s-1.83.49-1.83,1.28A13.19,13.19,0,0,0,50,22.64,1.63,1.63,0,0,0,49.93,22.94Z"/>
      <path d="M111.51,52.12a19.75,19.75,0,0,0-4.85-.79c-1.6-.17-3.25-.41-4.88-.56-1.64.05-3.31,0-5,.13l-4.88.27c-6.49.29-13,.25-19.52.11s-13-.48-19.63-.45c-3.29,0-6.56.1-9.86.25-1.63.28-3.24.5-4.9.91a31,31,0,0,1-4.79,1,23.19,23.19,0,0,0,5,.3c1.58,0,3.24.14,4.87.23,3.23-.17,6.49-.25,9.73-.25,6.49,0,13,.33,19.57.45s13.11.19,19.68-.11l4.91-.27c1.6-.07,3.2-.13,4.83-.07,1.63-.15,3.25-.33,4.92-.53a22.69,22.69,0,0,1,4.85-.51h.07v-.06a3.38,3.38,0,0,0,0-.48C111.54,51.86,111.54,52,111.51,52.12Z"/>
    </g>
    <g class="page-header__logo-tablet">
      <path d="M115.07,24.31a3.48,3.48,0,0,0-2.68-.18,6.81,6.81,0,0,0-2.23.42c-2.06,1.34-2.32,4.43-2.17,6.64.08,1.19.19,2.37.29,3.55,2.05-.43,4.2-.09,6.36,0a13.39,13.39,0,0,0,1.6-.07c-.1-1.9-.3-3.79-.29-5.7C115.93,27.78,116.22,25.07,115.07,24.31Z"/>
      <path d="M128.06,55.19h0C128.49,55.28,128.12,55.2,128.06,55.19Z"/>
      <path d="M128.21,16.88c-2-6.57-26.68-2.14-32.18-1.72-12.72,1-25.19-1-37.61-.38-6.21.29-34.85-1.81-37.52,2-5,7.21-2.65,25.8-1.28,35.08-4,.78,2.31,4.15,3.14,4.9,6.31,2.19,16.36-.22,23,.4,15.43,1.47,31.8-2.19,47.28-1,4.5,1.14,9.6,1,14.22,1.24,3.41,5.57,19.66-2.46,20.8-2.23h0C132.45,56.06,128.9,19.33,128.21,16.88ZM43.53,48.72a3.15,3.15,0,0,1-2.63.71.74.74,0,0,1-.37-1.36,10,10,0,0,0-.27-1.79,11,11,0,0,1-.21-2.34c0-2.42.19-4.81,0-7.24,0-.59-.1-1.17-.15-1.76a23.61,23.61,0,0,0-1.23,3.92,23,23,0,0,1-.92,3.73l.08.26c.15.46-.36.9-.69,1.1a5.73,5.73,0,0,1-.78.4c-.63.27-1.77.53-2.38,0-.17-.07-.28-.17-.24-.34a.73.73,0,0,1,.22-.67,20.29,20.29,0,0,0-1.71-4.44,32.12,32.12,0,0,1-2.07-4.42L30,34.08q0,.57,0,1.15c.1,3.91.39,7.82.4,11.73,0,1.31-2.46,1.89-3.32,1.21a3,3,0,0,1-.54-.52,1,1,0,0,1,.09-1.3c-.06-3.77-.35-7.54-.4-11.31a43.06,43.06,0,0,0-.36-5.8,8.21,8.21,0,0,1,.42-4.95c.64-1.33,3.85-1.48,3.67,0,1.59,3.14,2.76,6.43,4.07,9.68a33.66,33.66,0,0,0,1.56,3.21c.39-1.12.85-2.23,1.23-3.35a74.4,74.4,0,0,0,2.49-8.93l-.1-.25c-.14-.32,0-.64.35-.91.52-.91,3.8-1.43,3.62-.44,0,.23-.09.45-.13.67.71,2,.37,4.1.34,6.16,0,2.55.37,5.08.45,7.62.07,2.26-.45,4.75,0,7C44.13,46,44.66,47.67,43.53,48.72ZM47,23c0-.11,0-.21,0-.32s0-.08,0-.13a.66.66,0,0,1-.14-.56,2.23,2.23,0,0,1,.1-.34,15,15,0,0,1-.1-2.84c0-.89,1.38-1.38,2.06-1.44s1.7.21,1.69,1.11a7.31,7.31,0,0,0,.39,3.24c.23.51-.2,1-.69,1.29l-.24.21a3,3,0,0,1-1.4.5,2.05,2.05,0,0,1-1.25-.22A.86.86,0,0,1,47,23ZM52,47.5a3.67,3.67,0,0,1-2.19,1c-.08,0-1.87.2-1.47-.31.63-.79,0-2.48-.08-3.4-.22-2,.11-3.95-.14-5.9a37,37,0,0,1-.69-5.6,36.89,36.89,0,0,0-.15-6c-.13-.9,3.62-1.68,3.72-1a46.28,46.28,0,0,1,.15,6.54c0,1.91.67,3.68.73,5.57a51.83,51.83,0,0,0,.18,6C52.15,45.2,52.58,46.72,52,47.5ZM68,47A8.4,8.4,0,0,1,65,48.67a17.14,17.14,0,0,1-7.12.88c-3.61-.43-2-3.77-2.28-6.26-.14-1.09,3.6-1.87,3.72-1,.2,1.54-.83,3.8.11,5.15.52.73,1.83.5,2.6.44s2.08-.1,2.65-.73c.92-1-.17-3.05-.2-4.28,0-2.29,1-7.21-2.61-7.48-2.14-.16-6.35,1.18-7.38-1.66a12.66,12.66,0,0,1-.27-3.91c-.05-1.15-.37-2.25-.31-3.4.12-2.42,2.43-3.62,4.53-4.17,2.28-.6,10.34-1.44,9.19,2.92-.27,1-3.93,1.56-3.68.6.56-2.14-2.34-2.42-3.81-2.36a7.69,7.69,0,0,0-1,.09,4.25,4.25,0,0,0-.77.32,3.23,3.23,0,0,0-.71,2.76,33.4,33.4,0,0,1,.26,3.93c0,1.07,0,2.85,1.32,3.22,2.54.72,6.17-1.18,8.12,1.46,1.81,2.44.47,5.63,1.11,8.4C68.7,44.74,69,46.08,68,47Zm15.89.86c-.54,1.44-4.27,1.61-3.53-.35a10,10,0,0,0,.21-3.28c0-1.1-.09-2.2-.19-3.3-.12-1.31-.22-2.62-.3-3.92a28.31,28.31,0,0,0-5.77,0,29.21,29.21,0,0,0-.08,5c.17,1.71.9,3.85.38,5.54-.29.93-3.89,1.39-3.67.66A7.92,7.92,0,0,0,70.81,45a20.78,20.78,0,0,1-.31-3.1c0-2,.19-4,.25-6.07.13-4.25-.59-8.46-.43-12.71,0-1.08,3.74-1.55,3.72-1-.17,4.39.6,8.75.41,13.15,1.85-.06,3.7-.25,5.55-.23v-.21c-.17-3.41-.63-6.79-.65-10.21,0-1.56,3.75-2.2,3.75-.33,0,3.59.56,7.14.67,10.72.08,2.32.39,4.63.53,6.95C84.41,43.85,84.6,46.06,83.93,47.83Zm15.16,0c-.79-2.61-2.16-5-3-7.6a28,28,0,0,0-1.89-4.35,29.84,29.84,0,0,1-3.85,5.35c0,2,0,4-.22,6-.09,1-1.88,1.29-2.58,1.29h-.09c-.59,0-1.48-.37-1-1.08.14-1.66.2-3.33.2-5-.23-.1-.34-.28-.05-.57l0,0c-.07-6.52-1-13-1.22-19.54-.05-1.45,3.67-2.2,3.72-1,.19,5.26.81,10.5,1.09,15.75.85-1.42,1.62-2.89,2.37-4.37a1.09,1.09,0,0,1,.61-1.2l.21-.42c1-1.91,1.88-3.82,2.76-5.76a10.2,10.2,0,0,1,3-4.05,4.22,4.22,0,0,1,2.63-.7c.77.05.79.48.24.9-1.55,1.21-2.13,3.12-2.92,4.83-.87,1.89-1.83,3.74-2.78,5.59a70.35,70.35,0,0,1,3.43,7.4c.88,2.58,2.18,5,3,7.6C103.32,48.58,99.61,49.59,99.09,47.88ZM120,36.5c0,1.81.06,3.63.14,5.44.05,1.27.52,3.8-.38,4.86a3.76,3.76,0,0,1-2.19,1c-.07,0-1.89.18-1.47-.31.79-.93.38-3.16.33-4.28-.09-2.19-.17-4.4-.19-6.59a14.39,14.39,0,0,1-3.08.27c-1.29-.12-3.49-.7-4.79-.13,0,.77.08,1.54.1,2.32,0,2.63,0,5.27,0,7.9,0,1-3.72,1.54-3.72,1,0-3.33.09-6.66-.06-10-.13-2.87-.88-5.91-.35-8.77a6.63,6.63,0,0,1,4.33-5.39,23,23,0,0,1,7.1-1.33c2.27-.09,3.57.75,3.77,3.08.21,2.52.25,5.1.37,7.62,0,.32,0,.64,0,1,.85-.08,2-.06,2.16.73S121.14,36.36,120,36.5Z"/>
    </g>
    <g class="page-header__logo-desktop">
      <path d="M61.6,63.38a4.53,4.53,0,0,0-2,.54c-.14.08-.34.2-.34.39a3.09,3.09,0,0,1,0,.35.76.76,0,0,1-.12.29h0c-.06.08-.11.18,0,.25a1.28,1.28,0,0,0,.71.06A4.71,4.71,0,0,0,61,65a2.07,2.07,0,0,0,.79-.41,1,1,0,0,0,.28-.5,2.69,2.69,0,0,0,0-.53C62.09,63.38,61.67,63.38,61.6,63.38Z"/>
      <path d="M5.67,43.11c-1.49.36-3,.57-4.48,1-.54.15-1.34.64-1.16,1.32s1.13.71,1.66.56c1.48-.4,3-.61,4.48-1,.54-.13,1.34-.65,1.16-1.32S6.21,43,5.67,43.11Z"/>
      <path d="M57,60.78c-.5.08-1.41.3-1.64.83A34.64,34.64,0,0,0,54,65.51c-.21.73,2.57.33,2.8-.45a34.57,34.57,0,0,1,1.36-3.9C58.4,60.64,57.21,60.75,57,60.78Z"/>
      <path d="M122.56,12.27a2.31,2.31,0,0,0,1.05-.06,2.14,2.14,0,0,0,.94-.48,5.06,5.06,0,0,0,1-1.18c.1-.2.17-.4,0-.59a1.1,1.1,0,0,0-.76-.25,2.69,2.69,0,0,0-1.11.22,1.55,1.55,0,0,0-.76.55,3,3,0,0,1-.35.51l0,0,0,0-.19.2c-.16.16-.35.36-.28.61S122.35,12.23,122.56,12.27Z"/>
      <path d="M120.74,64.71c-.29-.59-1.07-.56-1.62-.41-.35.09-1.48.6-1.2,1.17l1.17,2.34c.29.59,1.07.56,1.62.41.35-.09,1.49-.6,1.2-1.17Z"/>
      <path d="M20.68,10.91c.22.65,1.11.65,1.65.5s1.39-.62,1.17-1.26a4.66,4.66,0,0,0-.89-1.78,1.7,1.7,0,0,0-1.9-.15c-.41.19-1.18.84-.7,1.35A3.09,3.09,0,0,1,20.68,10.91Z"/>
      <path d="M135.86,17.69a3.61,3.61,0,0,0,1.89-.66,21.13,21.13,0,0,0,3.62-3.64c.29-.39-1-.24-1.12-.23a2.74,2.74,0,0,0-1.66.75,19.72,19.72,0,0,1-3.39,3.37C134.71,17.69,135.65,17.71,135.86,17.69Z"/>
      <path d="M30.66,13.9c.84,0,3.07-1.28,1.19-1.28C31,12.62,28.77,13.9,30.66,13.9Z"/>
      <path d="M63.26,12.63c.13.2.56.22.75.22a2.93,2.93,0,0,0,1.11-.22c.4-.17,1.1-.56.77-1.07s-.61-1.19-1-1.75c-.13-.2-.56-.22-.75-.22a2.91,2.91,0,0,0-1.1.23c-.4.16-1.1.56-.77,1.07S62.9,12.06,63.26,12.63Z"/>
      <path d="M116.65,67.05c-.35-.69-3,.33-2.82.76.84,1.64,1.94,3.12,2.92,4.68.44.69,3-.41,2.82-.76C118.59,70.17,117.5,68.69,116.65,67.05Z"/>
      <path d="M143.16,31.4a38.93,38.93,0,0,1-4.66,2.78,17.32,17.32,0,0,0-.59-5.13c.05-.33.1-.67.15-1,.38-3,.66-7.12-2-9.22-.34-.27-1.25,0-1.92.27a4.64,4.64,0,0,0-.5-.41c-.08-.24-.16-.49-.23-.74s-.17-.19-.36-.21c.28-.38.26-.82-.42-1.09-.38-.15-.76-.29-1.14-.41-.07-.07-.13-.1-.17-.06h0a22.09,22.09,0,0,0-2.86-.71,5.08,5.08,0,0,1,.55-1,5,5,0,0,1,.43-.44l.19-.16.07-.06.08-.06c.38-.29.85-.86.22-1.2a2.1,2.1,0,0,0-2,.24,6.55,6.55,0,0,0-2.09,2.36,50.09,50.09,0,0,0-6.08-.08.76.76,0,0,0,.14-.25c.18-.58-.91-.52-1.19-.49l-4.69.6c1.37-3.77,3.08-8.58,1-12.26C113.89.55,111.18.08,109,0a13.72,13.72,0,0,0-7,1.64c-4.76,2.62-7.11,7.71-8.21,13.14a1.84,1.84,0,0,0-2.65.47c-.12.32-.23.65-.33,1a1.46,1.46,0,0,0-.34.64l0,.17h-.2l.06-.31a.69.69,0,0,0,.28-.37c.57-2.3,1.16-4.59,1.95-6.82.27-.76-2.51-.4-2.8.43-.42,1.19-.79,2.4-1.12,3.62a.91.91,0,0,0-.42.33l0,.1a.9.9,0,0,0-.47-.18v-1c0-.43-2.82,0-2.82.76V15.2a2.33,2.33,0,0,0-.47.27l-.19.17a.37.37,0,0,0-.12.24L84,16l-.05.07a.31.31,0,0,0,0,.47,1.13,1.13,0,0,0,.74.16h.15v.47h-.67l-.41-.05c0-.39-.68-.45-1.35-.33a.53.53,0,0,0,0-.15c-.1-.6-.17-1.19-.23-1.79a3.08,3.08,0,0,0,.68-.31c.16-.1.33-.22.33-.43v-.19c0-.18-.41-.2-.5-.21a2.84,2.84,0,0,0-.59,0C82,12.38,82,11.07,82,9.76c0-.84-2.82-.32-2.82.76a51.72,51.72,0,0,0,.19,5.34h-.27V14.34c0-1-1.3-1.22-2.15-.81a1,1,0,0,0,.37-1,30.42,30.42,0,0,1-1-4.29c-.19-1.39-3-.68-2.82.76a30.15,30.15,0,0,0,1,4.29c.23.83,1.34.89,2.1.51a1,1,0,0,0-.37.76v.63a1.65,1.65,0,0,0-.77-.16c-1.06,0-1.67.89-1.4,1.48l-.49-.08a14.1,14.1,0,0,1-.71-3.83c0-.94-1.27-1-2.11-.67a.57.57,0,0,0,0-.17,13,13,0,0,1-.78-2.53c-.33-1.35-3.16-.6-2.82.76.16.64.3,1.28.52,1.9h-.06a2.65,2.65,0,0,0-.85.39c-.83.08-1.83.57-1.75,1.21.06.48.13,1,.21,1.43l-1.64.26a11.9,11.9,0,0,1-.62-2.44c-.13-.92-1.55-.85-2.33-.26a22.56,22.56,0,0,0-3.12-5.76C54.79,3.22,50.32,2,46.17,2.87a9,9,0,0,0-5,2.65A5.94,5.94,0,0,0,40,10.32a19.12,19.12,0,0,0,1.58,6,2.47,2.47,0,0,0-.95.14c-.28.12-.56.25-.83.39-1.94,0-3.88,0-5.8-.07-4.18-.19-8.3-.86-12.5-.74-.92,0-1.53.72-1.46,1.26a4.31,4.31,0,0,0-2.14,2.29,54,54,0,0,0-5.34-3.21c-.69-.35-3.3.71-2.28,1.22a53.13,53.13,0,0,1,5.28,3.22,2.19,2.19,0,0,0,1.84-.07l.16-.08a9.72,9.72,0,0,0,.24,4.49.56.56,0,0,0,.17.27,9.29,9.29,0,0,0,0,1c0,.05,0,.11,0,.17a1.2,1.2,0,0,0-.76.84,37.38,37.38,0,0,0-.31,4.23,1.09,1.09,0,0,0-.48.8,49.9,49.9,0,0,0,.47,10,72.78,72.78,0,0,0,1.17,8q.09.62.17,1.25a9.7,9.7,0,0,0-.24,3.48c-.88.17-1.73.87-1.23,1.62a9.1,9.1,0,0,0,2.61,2.65,2.31,2.31,0,0,0-1.87.56c-.82.81-1.71,1.53-2.53,2.34-.43.42-.31.93.29,1.08a2.31,2.31,0,0,0,2-.54c.82-.81,1.71-1.53,2.53-2.34a.64.64,0,0,0,.2-.73C23.14,61.5,27.17,61,31,60.71a34.56,34.56,0,0,0-2.17,5c-.26.72,2.51.37,2.8-.44a33.4,33.4,0,0,1,2.1-4.9c3.74.12,7.48.12,11.22.05a1.08,1.08,0,0,0,.75.34,34.48,34.48,0,0,0,9.69-.7c4.79-.23,9.58-.52,14.37-.81,7.53-.19,15.06-.35,22.59-.32l.31.32a1.31,1.31,0,0,0,1,.33l.2,0c.71,0,1.43.09,2.14.15a1.81,1.81,0,0,0,.56,0h0l2.35.21a1.15,1.15,0,0,0,.79.36c3.8.25,7.61.52,11.42.7a1,1,0,0,0,.82.34c7.07.06,15.28,2.8,21.56-1.74.5-.36.27-.88-.26-1l-.33,0,0,0a60.73,60.73,0,0,0,2.95-8.55,1.08,1.08,0,0,0,.65-.86,34.63,34.63,0,0,1,.37-3.64q.25-1.33.44-2.66c.39-2.17.81-4.37,1-6.54A50,50,0,0,0,145,32.53C146.56,31.42,144.21,30.65,143.16,31.4ZM43.37,51.8a3.35,3.35,0,0,1-2.8.75.78.78,0,0,1-.39-1.45,10.69,10.69,0,0,0-.28-1.9,11.75,11.75,0,0,1-.22-2.48c0-2.58.2-5.12,0-7.7,0-.62-.1-1.25-.16-1.87a25.09,25.09,0,0,0-1.31,4.17,24.53,24.53,0,0,1-1,4l.09.28c.16.48-.39,1-.74,1.17a6.18,6.18,0,0,1-.83.43c-.67.28-1.89.56-2.53,0C33,47.1,32.93,47,33,46.8a.78.78,0,0,1,.23-.72,21.6,21.6,0,0,0-1.82-4.72,34.22,34.22,0,0,1-2.21-4.7L29,36.23c0,.41,0,.82,0,1.22.11,4.16.41,8.31.42,12.47,0,1.39-2.61,2-3.53,1.28a3.15,3.15,0,0,1-.58-.55,1,1,0,0,1,.09-1.39c-.06-4-.37-8-.42-12a45.71,45.71,0,0,0-.38-6.17,8.72,8.72,0,0,1,.44-5.26c.67-1.41,4.1-1.58,3.91,0,1.69,3.33,2.94,6.83,4.33,10.3A35.78,35.78,0,0,0,35,39.49c.41-1.2.9-2.37,1.31-3.57a78.92,78.92,0,0,0,2.65-9.5l-.1-.26c-.15-.34,0-.68.38-1,.55-1,4-1.52,3.85-.47,0,.24-.09.48-.14.72.76,2.1.39,4.36.36,6.55,0,2.71.4,5.4.48,8.11.07,2.41-.48,5.05,0,7.41C44,48.93,44.58,50.68,43.37,51.8ZM47,24.41c0-.11,0-.22,0-.34s0-.09,0-.14a.7.7,0,0,1-.14-.59A2.41,2.41,0,0,1,47,23a16.11,16.11,0,0,1-.11-3c0-.95,1.47-1.47,2.19-1.53s1.8.22,1.8,1.18a7.78,7.78,0,0,0,.42,3.45c.24.54-.21,1-.73,1.37l-.26.22a3.19,3.19,0,0,1-1.49.53,2.19,2.19,0,0,1-1.33-.24A.91.91,0,0,1,47,24.41Zm5.32,26.1a3.9,3.9,0,0,1-2.32,1c-.09,0-2,.21-1.57-.33.67-.84,0-2.64-.09-3.61-.24-2.08.12-4.2-.15-6.27a39.51,39.51,0,0,1-.74-6A39.21,39.21,0,0,0,47.3,29c-.14-1,3.85-1.79,4-1.06a49.13,49.13,0,0,1,.16,6.95c0,2,.71,3.92.78,5.92a55.47,55.47,0,0,0,.19,6.33C52.53,48.06,53,49.67,52.33,50.51Zm17.1-.56a8.91,8.91,0,0,1-3.27,1.81,18.23,18.23,0,0,1-7.57.94c-3.84-.45-2.08-4-2.42-6.65C56,44.88,60,44,60.12,45c.21,1.64-.88,4,.12,5.47.55.78,1.95.53,2.77.47s2.22-.11,2.82-.77c1-1.09-.19-3.25-.21-4.55,0-2.44,1.11-7.67-2.77-8-2.28-.17-6.76,1.25-7.85-1.76-.49-1.35-.23-2.75-.29-4.16-.05-1.22-.39-2.39-.33-3.62.13-2.58,2.59-3.85,4.82-4.44,2.42-.64,11-1.53,9.77,3.11-.28,1.08-4.18,1.66-3.91.64.6-2.27-2.49-2.57-4.06-2.51a8.11,8.11,0,0,0-1.08.09,4.37,4.37,0,0,0-.82.34,3.44,3.44,0,0,0-.75,2.93,35.45,35.45,0,0,1,.28,4.18c0,1.14,0,3,1.4,3.43,2.7.77,6.56-1.26,8.64,1.55,1.92,2.59.5,6,1.18,8.93C70.13,47.58,70.48,49,69.43,49.94Zm16.9.91c-.58,1.54-4.54,1.71-3.76-.37A10.68,10.68,0,0,0,82.8,47c0-1.17-.09-2.34-.2-3.51-.13-1.39-.23-2.78-.33-4.17a30,30,0,0,0-6.14,0,31.17,31.17,0,0,0-.08,5.3c.18,1.82,1,4.1.41,5.89-.3,1-4.14,1.48-3.9.7a8.4,8.4,0,0,0-.18-3.35A21.8,21.8,0,0,1,72,44.58c0-2.16.2-4.3.26-6.46.14-4.52-.63-9-.46-13.51,0-1.15,4-1.65,4-1.06-.18,4.67.64,9.31.44,14,2-.07,3.94-.27,5.9-.25,0-.08,0-.15,0-.22-.19-3.63-.67-7.22-.69-10.86,0-1.66,4-2.34,4-.35,0,3.82.59,7.59.71,11.4.08,2.47.41,4.92.56,7.39C86.84,46.62,87,49,86.33,50.86ZM87.7,16.47q.11-.47.23-.93H88l-.2.81Zm14.75,34.44c-.84-2.78-2.29-5.32-3.16-8.09a29.77,29.77,0,0,0-2-4.62,31.66,31.66,0,0,1-4.09,5.69A63.27,63.27,0,0,1,93,50.23c-.09,1-2,1.38-2.74,1.38h-.1c-.63,0-1.57-.4-1.09-1.15.15-1.77.21-3.54.21-5.3-.24-.11-.36-.29-.05-.61l0-.05c-.07-6.93-1.05-13.85-1.3-20.78-.05-1.54,3.91-2.34,4-1.06.2,5.59.86,11.17,1.16,16.75.91-1.51,1.72-3.08,2.52-4.65a1.16,1.16,0,0,1,.65-1.28l.23-.45c1-2,2-4.06,2.94-6.13a10.84,10.84,0,0,1,3.23-4.31,4.49,4.49,0,0,1,2.79-.75c.81.06.84.51.26,1-1.65,1.28-2.27,3.32-3.11,5.14-.92,2-1.95,4-3,5.94a74.67,74.67,0,0,1,3.65,7.87c.93,2.74,2.32,5.31,3.16,8.09C106.95,51.65,103,52.73,102.45,50.91Zm22.29-12.1c0,1.93.06,3.86.14,5.79.05,1.35.55,4-.41,5.17a4,4,0,0,1-2.32,1c-.08,0-2,.19-1.57-.33.84-1,.4-3.36.36-4.55-.1-2.33-.18-4.68-.2-7a15.43,15.43,0,0,1-3.27.29c-1.38-.13-3.71-.74-5.1-.14.05.82.09,1.64.1,2.47,0,2.8,0,5.6,0,8.4,0,1.09-4,1.64-4,1.06,0-3.54.09-7.08-.06-10.61-.14-3.06-.93-6.29-.38-9.33a7.06,7.06,0,0,1,4.6-5.73,24.5,24.5,0,0,1,7.55-1.42c2.41-.09,3.8.8,4,3.28.23,2.68.27,5.42.4,8.11,0,.34,0,.68,0,1,.91-.08,2.08-.06,2.29.78S125.9,38.66,124.74,38.81Z"/><path d="M146.74,44.77h-4.87a1.61,1.61,0,0,0-1.56,1.14c-.09.74.75.92,1.3.92h4.87A1.61,1.61,0,0,0,148,45.69C148.13,45,147.29,44.77,146.74,44.77Z"/><path d="M119.44,25.84a3.7,3.7,0,0,0-2.86-.19,7.22,7.22,0,0,0-2.38.44c-2.19,1.43-2.47,4.71-2.31,7.06.09,1.26.2,2.52.31,3.78,2.18-.46,4.46-.1,6.77,0a13.81,13.81,0,0,0,1.7-.08c-.1-2-.32-4-.31-6.06C120.36,29.53,120.66,26.65,119.44,25.84Z"/>
    </g>
  </symbol>

  <symbol viewBox="0 0 32 22" id="icon-video">
    <path fill="#63d1bb" class="st0" d="M26,10l6-4v16l-6-4V10z M24,10v8c0,2.2-1.8,4-4,4H4c-2.2,0-4-1.8-4-4v-8c0-2.2,1.8-4,4-4h10c0-1.1,0.9-2,2-2V2H5C4.4,2,4,1.6,4,1s0.4-1,1-1h12c0.6,0,1,0.4,1,1v3c1.1,0,2,0.9,2,2C22.2,6,24,7.8,24,10z M12,10H4v8h8V10z M20,11c0-0.6-0.4-1-1-1h-4c-0.6,0-1,0.4-1,1s0.4,1,1,1h4C19.6,12,20,11.6,20,11z"/>
  </symbol>

  <symbol viewBox="0 0 25 24" id="icon-phone">
    <path d="M17.321,24.333c-0.371,0-0.744,0-1.115,0c-4.904-0.58-8.497-2.857-11.11-5.772C2.473,15.637,0.402,11.875,0,6.817 c0-0.453,0-0.906,0-1.358c0.091-0.921,0.544-1.55,1.067-2.086c0.65-0.666,1.63-1.522,2.522-1.553 c0.659-0.022,1.78,0.451,2.232,1.066c0.388,0.53,0.595,1.59,0.775,2.378c0.185,0.797,0.6,1.95,0.485,2.717 C6.905,9.177,5.317,9.684,4.85,10.553c1.551,3.721,4.089,6.456,7.472,8.345c0.847-0.465,1.595-1.864,2.767-1.892 c0.428-0.012,0.972,0.209,1.406,0.34c0.477,0.143,0.891,0.326,1.311,0.484c0.705,0.266,1.957,0.621,2.378,1.213 c0.433,0.61,0.681,1.608,0.581,2.231C20.571,22.508,18.538,23.877,17.321,24.333z"/>
    <path d="M12.529,1.528c5.949,0,10.771,4.822,10.771,10.771h1.529C24.829,5.507,19.323,0,12.529,0V1.528z"/>
    <path d="M12.529,9.327v1.552c0.785,0,1.421,0.636,1.421,1.42h1.553C15.502,10.657,14.172,9.327,12.529,9.327z"/>
    <path d="M12.529,6.246c3.345,0,6.056,2.71,6.056,6.054h1.588c0-4.22-3.422-7.641-7.644-7.641V6.246z"/>
  </symbol>

  <symbol viewBox="0 0 32 21" id="icon-mail">
    <path d="M28,0H4C1.8,0,0,1.8,0,4v13c0,2.2,1.8,4,4,4h24c2.2,0,4-1.8,4-4V4C32,1.8,30.2,0,28,0z M2,5.3l7,5.3l-7,5.3V5.3z M30,17c0,1.1-0.9,2-2,2H4c-1.1,0-2-0.9-2-2l7.8-5.9l4.4,3.3c0.5,0.4,1.2,0.6,1.8,0.6c0.6,0,1.3-0.2,1.8-0.6l4.4-3.3L30,17L30,17z M30,15.8l-7-5.3l7-5.3V15.8z M17.2,13.6C16.8,13.9,16.4,14,16,14c-0.4,0-0.9-0.1-1.2-0.4l-4.1-3.1L9.8,9.9L2,4v0c0-1.1,0.9-2,2-2h24c1.1,0,2,0.9,2,2L17.2,13.6z"/>
  </symbol>

</svg>
